<svg id="_Layer_" data-name="&lt;Layer&gt;" xmlns="http://www.w3.org/2000/svg" viewBox="0 0 2760 1840"><defs><style>.cls-1{fill:#fff;}.cls-2{fill:#daebe8;}.cls-3{fill:#b8d5dc;}.cls-4{fill:#d6654e;}.cls-5{fill:#ef8062;}.cls-6{fill:#92a5e6;}.cls-7{fill:#92bcb5;}.cls-8{fill:#ffb27d;}.cls-9{fill:#331832;}.cls-10{fill:#49263e;}.cls-11{fill:#68a1bf;}.cls-12{fill:#080435;}.cls-13{opacity:0.3;}.cls-14{fill:#020202;}.cls-15{fill:#3aa1c9;}.cls-16{fill:#4bb7d8;}.cls-17{fill:#ef394d;}.cls-18{fill:#e7925c;}.cls-19{fill:#223749;}.cls-20{fill:#90bbce;}.cls-21{fill:#5c305d;}.cls-22{fill:#366f90;}.cls-23{fill:#764678;}.cls-24{fill:#72bedd;}.cls-25{fill:#f6ab48;}.cls-26{fill:#ff9e28;}.cls-27{fill:#fec786;}.cls-28{fill:#7fc6a6;}.cls-29{fill:#f5bf82;}.cls-30{fill:#ec8751;}</style></defs><rect class="cls-1" width="2760" height="1840"/><path class="cls-2" d="M2256.69,1704.52c-194,24.09-393.91,14-802.34-11.15-229.34-14.15-690.46,9.29-920.63,11.15-167.81,1.36-303.85-122.87-303.85-274.44V484.85c0-151.56,136.33-283.35,303.85-274.43,155.57,8.27,384.39,41.05,622.93,21,283.7-23.87,822.18-44.15,1100-21,167.1,13.93,303.85,122.87,303.85,274.43v945.23C2560.54,1581.65,2422.94,1683.89,2256.69,1704.52Z"/><ellipse class="cls-3" cx="1372.83" cy="1459.67" rx="941.36" ry="130.3"/><path class="cls-4" d="M1221.2,438.67s17.54,11.75,35.2-.73c0,0-6.46-12.2-11.23-13.41,0,0-17.16,10-36.64-6.85C1208.53,417.68,1215.24,434,1221.2,438.67Z"/><path class="cls-5" d="M1186.59,384.93s-2.63,31.35,34.61,53.74c0,0-20.09-27.2-11.78-45.33C1209.42,393.34,1198.77,383.39,1186.59,384.93Z"/><path class="cls-4" d="M1150.67,704.78s17.69-11.52,13.15-32.66c0,0-13.76,1.15-16.74,5.06,0,0,2.41,19.69-20.7,31C1126.38,708.19,1144,708.41,1150.67,704.78Z"/><path class="cls-5" d="M1087.65,715.5s27.79,14.73,63-10.72c0,0-32.91,7.79-46.32-7C1104.35,697.81,1091,703.69,1087.65,715.5Z"/><path class="cls-4" d="M2201.83,539.18s7.88-19.59-8-34.3c0,0-10.61,8.84-10.8,13.76,0,0,13.28,14.74.84,37.27C2183.9,555.91,2198.46,546,2201.83,539.18Z"/><path class="cls-5" d="M2156.38,584.12s31.22-3.88,45.45-44.94c0,0-22.47,25.26-41.93,20.87C2159.9,560.05,2152.36,572.52,2156.38,584.12Z"/><path class="cls-6" d="M1062.79,535.94s8.52,1.65,21.16-7.53c0,0,.8-8-.67-11.82s-4.15-10.23-6.33-9.31-9.37,4.83-16.43,5.81-.41,6.35-1.31,12.54S1058.72,536,1062.79,535.94Z"/><path class="cls-6" d="M2312.22,641s8.52,1.64,21.16-7.53c0,0,.8-8-.67-11.82s-4.15-10.23-6.33-9.31-9.37,4.83-16.43,5.81-.41,6.34-1.31,12.53S2308.15,641,2312.22,641Z"/><path class="cls-5" d="M845.91,575.69s6.85-4.14,9.84-18.24c0,0-4.39-6-7.77-7.68s-9.17-4.45-10.09-2.46-3.43,9.1-7.66,14.13,3.64,4.6,6.85,9.4S843.15,578.24,845.91,575.69Z"/><path class="cls-7" d="M927.91,447.13s2.1-7.72-5.47-20c0,0-7.28-1.29-10.92-.2s-9.7,3.1-9,5.18,3.79,8.95,4.2,15.52,5.81.81,11.44,2.07S927.67,450.88,927.91,447.13Z"/><path class="cls-7" d="M880.78,1104.23s2.11-7.72-5.46-20c0,0-7.28-1.28-10.92-.2s-9.7,3.11-9,5.18,3.79,9,4.2,15.52,5.81.82,11.44,2.08S880.55,1108,880.78,1104.23Z"/><path class="cls-7" d="M2284.11,813.71s2.1-7.72-5.46-20c0,0-7.29-1.29-10.92-.2s-9.71,3.1-9,5.18,3.79,8.95,4.2,15.52,5.81.81,11.45,2.07S2283.87,817.46,2284.11,813.71Z"/><path class="cls-8" d="M2187,1047.57c-.87,5.83,0,18-.75,23.85-.34,2.55-.86,11.23,1.63,12.14,2.17.79,5.85-5.59,7.22-8.88,9.48,19.81,29,42.36,11.88,1.92l.06,0c1.73,3.38,13.61,28.53,18.25,24.73,3.4-2.78-7-23.21-9.77-28.79l.14-.08c3.3,5.46,12.4,22.45,15.8,20,4.46-3.27-8-24.83-8-24.83s9.87,18.11,13.12,12.54c1.83-3.15-4.35-13.7-8.29-20.22h0c-.82-1.37-1.55-2.56-2.08-3.47a11.54,11.54,0,0,0-1.41-1.91,100.81,100.81,0,0,0-13.51-16.25s-6.3-7.93-15.66-3.72C2189.73,1037.22,2187.4,1045,2187,1047.57Z"/><path class="cls-8" d="M1808.17,794.08c-.79-5.85-5-17.27-5.94-23.12-.4-2.53-2.32-11-5-11.19-2.3-.16-4,7-4.45,10.54-14.64-16.37-39.69-32.57-12,1.48l0,0c-2.6-2.76-21-23.59-24.43-18.65-2.49,3.62,13.18,20.34,17.42,24.92l-.11.12c-4.69-4.33-18.18-18.09-20.74-14.76-3.38,4.39,14.57,21.62,14.57,21.62s-14.54-14.63-16.1-8.37c-.87,3.53,8,11.94,13.61,17.1h0c1.17,1.08,2.21,2,3,2.74a11,11,0,0,0,1.88,1.44,101,101,0,0,0,17.52,11.84s8.26,5.85,16.07-.8C1808.46,804.78,1808.51,796.62,1808.17,794.08Z"/><path class="cls-9" d="M2020.8,1398s.8,13.37-8.48,17.88-36.81,10-25.66,17.81c6.39,4.47,34.24-.87,42.17-1.49s15.68,2.07,21.15-3.37c6-6-2.86-32.85-2.86-32.85s-6.56,3.88-12.73,4.2C2025.49,1400.61,2020.8,1398,2020.8,1398Z"/><path class="cls-9" d="M2157.89,1346.47s21.64,52.25,17.73,61.78-20.76,32-7.27,30.39c7.74-.93,25-23.47,30.46-29.21s13.07-8.9,13.51-16.61c.49-8.47-27.21-34.86-27.21-34.86s-3.52-38.37-7.91-34C2170.87,1330.22,2157.89,1346.47,2157.89,1346.47Z"/><path class="cls-10" d="M1997.42,765.15s-4.9-22.64,16.46-26.49,17.92,11.88,22.19,15.46-4.55,15.94-14.77,18.34S1997.42,765.15,1997.42,765.15Z"/><path class="cls-5" d="M1939.73,1068.24c2.89-42.5,93.67,4.6,93.67,4.6s38.22,291.61,20.79,332.53c-3.44,8.08-18.27,8-25.21,7.19-49.09-5.36-61.27-151.1-74.09-215.15C1948.47,1165.27,1938,1093.94,1939.73,1068.24Z"/><path class="cls-9" d="M2114.58,1067.5c-2.58,10.44-43.72,21.39-93,10.33s-87.68-22.83-85.09-33.26,45.18-15.6,94.43-4.54S2117.16,1057.07,2114.58,1067.5Z"/><path class="cls-11" d="M1956.16,906.18A155.62,155.62,0,0,1,1933,893.36s26-43.59,80.52-40.7c7.55.4,41.67,6.23,49,7.49,93.9,16.17,52.43,203.31,52.09,207.35-94.92-40.24-178-22.93-178-22.93C1935.83,973.24,1954.65,909.75,1956.16,906.18Z"/><path class="cls-5" d="M2097.67,1069.68s-82.75-25.1-151.2-21a6.05,6.05,0,0,0-5.84,5.5s-1.35,23.9-.75,31.83c1.34,17.58,163.72,11.13,163.72,11.13Z"/><path class="cls-8" d="M2053.18,858.49c-8.32,9.09-17.66,12-29.83,12-18.44,0-9.85-17.84-9.85-17.84,4.53-.1,7-2.26,7.38-6.5l.45-5.22.22-2.58.73-8.26.65-7.42,2.66-30.42,8.5,31,1.45,5.26,5,18.15a17.12,17.12,0,0,0,12.57,11.82Z"/><path class="cls-9" d="M2035.54,828.5s-5.44,9-14,9.86l.73-8.26C2027.62,829.1,2035.54,828.5,2035.54,828.5Z"/><path class="cls-10" d="M2062.59,792.59s-2.06,4.75-.71,15.31c2,15.46-17.05,19-21,14.11-.48-.6,4.43-25.68,4.43-25.68l6.29-2.37Z"/><ellipse class="cls-8" cx="2023.35" cy="796.86" rx="35.37" ry="30.37" transform="translate(810.55 2601.86) rotate(-77.6)"/><path class="cls-10" d="M2015.86,768.35c.65,1.19-7,18.44,27.61,27.89s20.07-34-5.87-38.7c-37.45-6.82-46.87,16.19-44.67,25.29S2015.86,768.35,2015.86,768.35Z"/><path class="cls-10" d="M2040.51,790s12.09,16.43,4.66,30.33c0,0,9.8-7.38,10.52-10.57s.4-15.11.4-15.11Z"/><ellipse class="cls-8" cx="2044.85" cy="800.43" rx="8.47" ry="6.6" transform="translate(-111.15 1217.3) rotate(-32.32)"/><path class="cls-12" d="M2020.38,796.77a.65.65,0,0,1-.39-.45.64.64,0,0,1,.52-.78,7.75,7.75,0,0,1,8.54,3.15.63.63,0,0,1-.17.91.79.79,0,0,1-1-.17,12.37,12.37,0,0,0-7.1-2.62A.73.73,0,0,1,2020.38,796.77Z"/><path class="cls-12" d="M2024.63,804.63c-.21,1.54-1.33,2.68-2.52,2.54s-2-1.5-1.79-3,1.33-2.68,2.52-2.54S2024.83,803.09,2024.63,804.63Z"/><path class="cls-12" d="M1995.41,796.56a.71.71,0,0,1-.54-.27.63.63,0,0,1,.16-.91,7.86,7.86,0,0,1,9.18-.15.63.63,0,0,1,.2.9.77.77,0,0,1-1,.19,12.59,12.59,0,0,0-7.63.12A.71.71,0,0,1,1995.41,796.56Z"/><path class="cls-12" d="M2002.52,802.3c.44,1.5-.14,3-1.3,3.26s-2.45-.68-2.88-2.17.14-3,1.29-3.26S2002.08,800.81,2002.52,802.3Z"/><g class="cls-13"><ellipse class="cls-1" cx="2026.01" cy="801.97" rx="16.29" ry="11.76" transform="translate(1076.52 2763.18) rotate(-85.76)"/></g><g class="cls-13"><ellipse class="cls-1" cx="1996.29" cy="801.92" rx="16.09" ry="10.18" transform="translate(867.23 2633.17) rotate(-80.23)"/></g><path class="cls-9" d="M2038.49,801.14a21.2,21.2,0,0,0-.12-3.47c0-.41-.09-.81-.16-1.2-.11-.68-.24-1.33-.41-2-1.16-4.47-3.64-8-7-9.8a9.94,9.94,0,0,0-8.35-.66,13.37,13.37,0,0,0-1.68.77c-4.36,2.41-7.49,7.7-8.33,13.67a17.38,17.38,0,0,0-.19,2,21.76,21.76,0,0,0,.26,4.89,20.79,20.79,0,0,0,1.23,4.42,14.18,14.18,0,0,0,6.15,7.34,10.29,10.29,0,0,0,3.39,1.17,9.32,9.32,0,0,0,1,.1,9.94,9.94,0,0,0,3.91-.61,12,12,0,0,0,3.74-2.18,19,19,0,0,0,5.92-10.38c.11-.43.2-.88.27-1.33A23.5,23.5,0,0,0,2038.49,801.14Zm-21,12.72a15.46,15.46,0,0,1-2.69-4.42,18.56,18.56,0,0,1-1.18-4.2,22.83,22.83,0,0,1-.27-4.43,19.89,19.89,0,0,1,.19-2.07c.77-5.82,3.79-11,8-13.13a9.42,9.42,0,0,1,1.26-.55,8.82,8.82,0,0,1,7.36.57,12.09,12.09,0,0,1,4.4,4.34,15.46,15.46,0,0,1,1.23,2.44,1.31,1.31,0,0,0,0,.15.2.2,0,0,1,0,.08,10.21,10.21,0,0,1,.48,1.38,19.5,19.5,0,0,1,.63,2.61,21.14,21.14,0,0,1,.27,3,18.46,18.46,0,0,1,0,2c0,.68-.12,1.37-.22,2v0a18.43,18.43,0,0,1-5.42,10.86,11,11,0,0,1-3.83,2.36,8.73,8.73,0,0,1-7.35-.58,10.71,10.71,0,0,1-2.91-2.34A.11.11,0,0,0,2017.54,813.86Z"/><path class="cls-9" d="M2006.55,802.13c0-.46.08-.91.11-1.38l-.41.16a24.56,24.56,0,0,1-1.08,7.07.05.05,0,0,1,0,0c.09-.24.17-.48.25-.73,0,0,0-.08,0-.12a8.34,8.34,0,0,0,.26-.89q.19-.66.36-1.35c.1-.45.19-.91.26-1.38S2006.5,802.59,2006.55,802.13Zm0,0c0-.46.08-.91.11-1.38l-.41.16a24.56,24.56,0,0,1-1.08,7.07.05.05,0,0,1,0,0c.09-.24.17-.48.25-.73,0,0,0-.08,0-.12a8.34,8.34,0,0,0,.26-.89q.19-.66.36-1.35c.1-.45.19-.91.26-1.38S2006.5,802.59,2006.55,802.13Zm0,0c0-.46.08-.91.11-1.38l-.41.16a24.56,24.56,0,0,1-1.08,7.07.05.05,0,0,1,0,0c.09-.24.17-.48.25-.73,0,0,0-.08,0-.12a8.34,8.34,0,0,0,.26-.89q.19-.66.36-1.35c.1-.45.19-.91.26-1.38S2006.5,802.59,2006.55,802.13Zm0,0c0-.46.08-.91.11-1.38l-.41.16a24.56,24.56,0,0,1-1.08,7.07.05.05,0,0,1,0,0c.09-.24.17-.48.25-.73,0,0,0-.08,0-.12a8.34,8.34,0,0,0,.26-.89q.19-.66.36-1.35c.1-.45.19-.91.26-1.38S2006.5,802.59,2006.55,802.13Zm0,0c0-.46.08-.91.11-1.38l-.41.16a24.56,24.56,0,0,1-1.08,7.07.05.05,0,0,1,0,0c.09-.24.17-.48.25-.73,0,0,0-.08,0-.12a8.34,8.34,0,0,0,.26-.89q.19-.66.36-1.35c.1-.45.19-.91.26-1.38S2006.5,802.59,2006.55,802.13Zm0,0c0-.46.08-.91.11-1.38l-.41.16a24.56,24.56,0,0,1-1.08,7.07.05.05,0,0,1,0,0c.09-.24.17-.48.25-.73,0,0,0-.08,0-.12a8.34,8.34,0,0,0,.26-.89q.19-.66.36-1.35c.1-.45.19-.91.26-1.38S2006.5,802.59,2006.55,802.13Zm0,0c0-.46.08-.91.11-1.38l-.41.16a24.56,24.56,0,0,1-1.08,7.07.05.05,0,0,1,0,0c.09-.24.17-.48.25-.73,0,0,0-.08,0-.12a8.34,8.34,0,0,0,.26-.89q.19-.66.36-1.35c.1-.45.19-.91.26-1.38S2006.5,802.59,2006.55,802.13Zm0,0c0-.46.08-.91.11-1.38l-.41.16a24.56,24.56,0,0,1-1.08,7.07.05.05,0,0,1,0,0c.09-.24.17-.48.25-.73,0,0,0-.08,0-.12a8.34,8.34,0,0,0,.26-.89q.19-.66.36-1.35c.1-.45.19-.91.26-1.38S2006.5,802.59,2006.55,802.13Zm.83-1.61q0-1-.09-2c0-.36-.07-.73-.12-1.1-.74-5.61-3.32-10.16-6.87-12.15a8.56,8.56,0,0,0-2.58-.94,7.57,7.57,0,0,0-2.18-.08,7.83,7.83,0,0,0-1.55.34h0l-.39.13c-6.08,2.24-10.06,11.51-8.84,20.66.76,5.62,3.33,10.17,6.89,12.16a7.87,7.87,0,0,0,2.81,1,7.58,7.58,0,0,0,3.43-.28l0,0,.42-.13a11.74,11.74,0,0,0,5.64-4.86v0h0a21.87,21.87,0,0,0,3.07-8.27A24.47,24.47,0,0,0,2007.38,800.52Zm-2.31,7.75a17.58,17.58,0,0,1-3,5.59,10.06,10.06,0,0,1-3.53,2.88l0,0h0a.28.28,0,0,1-.14.06,3.44,3.44,0,0,1-.49.21,4.62,4.62,0,0,1-.6.19,6.55,6.55,0,0,1-5.1-.66c-3.2-1.8-5.55-5.93-6.3-11.13,0,0,0,0,0,0v-.07l0-.12c-1.16-8.7,2.48-17.45,8.12-19.53a7.05,7.05,0,0,1,1.09-.3,6.27,6.27,0,0,1,2.2-.06,7,7,0,0,1,2.4.83l.18.12a11.18,11.18,0,0,1,3.94,4.26,19.68,19.68,0,0,1,2.21,7c0,.41.1.83.14,1.24,0,.71.08,1.44.08,2.15a24.56,24.56,0,0,1-1.08,7.07C2005.13,808.07,2005.1,808.18,2005.07,808.27Zm1.48-6.14c0-.46.08-.91.11-1.38l-.41.16a24.56,24.56,0,0,1-1.08,7.07.05.05,0,0,1,0,0c.09-.24.17-.48.25-.73,0,0,0-.08,0-.12a8.34,8.34,0,0,0,.26-.89q.19-.66.36-1.35c.1-.45.19-.91.26-1.38S2006.5,802.59,2006.55,802.13Zm0,0c0-.46.08-.91.11-1.38l-.41.16a24.56,24.56,0,0,1-1.08,7.07.05.05,0,0,1,0,0c.09-.24.17-.48.25-.73,0,0,0-.08,0-.12a8.34,8.34,0,0,0,.26-.89q.19-.66.36-1.35c.1-.45.19-.91.26-1.38S2006.5,802.59,2006.55,802.13Zm0,0c0-.46.08-.91.11-1.38l-.41.16a24.56,24.56,0,0,1-1.08,7.07.05.05,0,0,1,0,0c.09-.24.17-.48.25-.73,0,0,0-.08,0-.12a8.34,8.34,0,0,0,.26-.89q.19-.66.36-1.35c.1-.45.19-.91.26-1.38S2006.5,802.59,2006.55,802.13Zm0,0c0-.46.08-.91.11-1.38l-.41.16a24.56,24.56,0,0,1-1.08,7.07.05.05,0,0,1,0,0c.09-.24.17-.48.25-.73,0,0,0-.08,0-.12a8.34,8.34,0,0,0,.26-.89q.19-.66.36-1.35c.1-.45.19-.91.26-1.38S2006.5,802.59,2006.55,802.13Zm0,0c0-.46.08-.91.11-1.38l-.41.16a24.56,24.56,0,0,1-1.08,7.07.05.05,0,0,1,0,0c.09-.24.17-.48.25-.73,0,0,0-.08,0-.12a8.34,8.34,0,0,0,.26-.89q.19-.66.36-1.35c.1-.45.19-.91.26-1.38S2006.5,802.59,2006.55,802.13Zm0,0c0-.46.08-.91.11-1.38l-.41.16a24.56,24.56,0,0,1-1.08,7.07.05.05,0,0,1,0,0c.09-.24.17-.48.25-.73,0,0,0-.08,0-.12a8.34,8.34,0,0,0,.26-.89q.19-.66.36-1.35c.1-.45.19-.91.26-1.38S2006.5,802.59,2006.55,802.13Zm0,0c0-.46.08-.91.11-1.38l-.41.16a24.56,24.56,0,0,1-1.08,7.07.05.05,0,0,1,0,0c.09-.24.17-.48.25-.73,0,0,0-.08,0-.12a8.34,8.34,0,0,0,.26-.89q.19-.66.36-1.35c.1-.45.19-.91.26-1.38S2006.5,802.59,2006.55,802.13Z"/><path class="cls-9" d="M2005.48,801.06a1.06,1.06,0,0,1-.77-.5,1,1,0,0,1,.41-1.38,12.47,12.47,0,0,1,9.66,0,1,1,0,0,1,.6,1.31,1.11,1.11,0,0,1-1.4.57,10.12,10.12,0,0,0-7.81-.07A1.11,1.11,0,0,1,2005.48,801.06Z"/><path class="cls-10" d="M2044.85,765.09s6.58-22.25,27.47-16.56,14.66,16.38,12.29,23.25c-1.76,5.11-11.76,12.25-22,10S2044.85,765.09,2044.85,765.09Z"/><path class="cls-10" d="M2054.69,836.2a.65.65,0,0,1-.53-.27,28.67,28.67,0,0,0-12.14-9,.65.65,0,1,1,.46-1.21,29.59,29.59,0,0,1,12.74,9.42.64.64,0,0,1-.16.9A.63.63,0,0,1,2054.69,836.2Z"/><path class="cls-14" d="M2011.87,822.22A7.65,7.65,0,0,1,2006,820a.35.35,0,0,1,0-.49.36.36,0,0,1,.49,0c3.76,4.16,12.41.49,12.5.45a.34.34,0,1,1,.27.63A21.07,21.07,0,0,1,2011.87,822.22Z"/><path class="cls-2" d="M2013.5,852.66s-7.66,17.42,9.85,17.84c0,0-9.2,8.66-15.64,5.19s-.27-6.57-3-8.89-5.75-4-3-6.69,0-7.45,0-7.45S2009.29,851,2013.5,852.66Z"/><path class="cls-2" d="M2007.38,895.94a2.76,2.76,0,1,0-2.75,2.58A2.67,2.67,0,0,0,2007.38,895.94Z"/><ellipse class="cls-2" cx="1993.08" cy="979.03" rx="2.75" ry="2.59"/><path class="cls-2" d="M1995.83,941.38a2.75,2.75,0,1,0-2.75,2.59A2.67,2.67,0,0,0,1995.83,941.38Z"/><path class="cls-11" d="M1946.61,923.48s-10.21,40-9.94,105.78l65-176.6s-41.52,2.46-93-8.81c-31.73-6.93-89.1-52-95.07-55.23-6.45-3.45-28.5,23.58-28.5,23.58C1780.2,820.94,1861.73,905.73,1946.61,923.48Z"/><path class="cls-11" d="M2065.64,860.78s60.28,0,147.92,168a10.1,10.1,0,0,1-4.1,13.54l-19.21,10.51a18.49,18.49,0,0,1-24-5.62c-18.26-26.11-59.95-81.86-93.38-97.87C2028.71,928.14,2065.64,860.78,2065.64,860.78Z"/><path class="cls-2" d="M2053.18,858.49l12.46,2.29s2.21,6.09-3.89,8-7.33,1.93-9.28,6.37-9.56,4.64-12.23,3.09-7.36,4.25-11.69,4.25-6.9-7.22-5.2-12C2023.35,870.5,2039.62,867.88,2053.18,858.49Z"/><path class="cls-9" d="M2124,993.47a.4.4,0,0,1-.37-.23c-9.68-19.33-33.3-34.82-33.54-35a.43.43,0,0,1-.12-.59.42.42,0,0,1,.58-.12c.24.16,24.05,15.76,33.83,35.31a.42.42,0,0,1-.19.56A.41.41,0,0,1,2124,993.47Z"/><path class="cls-9" d="M1946.61,923.9a.25.25,0,0,1-.12,0,.41.41,0,0,1-.28-.52l4-13.42a.42.42,0,0,1,.52-.29.43.43,0,0,1,.29.52l-4,13.43A.42.42,0,0,1,1946.61,923.9Z"/><path class="cls-5" d="M1990.33,1070.27s58.39,227.61,153.51,307.37a29.74,29.74,0,0,0,32.88,3.44l16.86-8.83a23.35,23.35,0,0,0,9.75-31.73c-25.26-47.08-85.35-166.37-105.66-270.84Z"/><path class="cls-9" d="M2051.53,1243c-.26-.6-25.31-60.78-34-94.94-8.65-33.84-36.53-45.66-36.81-45.78l.45-1.08c.28.12,28.7,12.17,37.49,46.57,8.71,34.07,33.74,94.18,34,94.78Z"/><path class="cls-9" d="M704.32,769.25s1.44,17.54-21.13,21.64-18.13,16.81-13.66,23.6-25.61-6.63-53.65,18.3,13.25,49.67,35.81,46.7,108.17-21.38,112.38-27.83,10.06-24.2-1.32-26.68c-20.37-4.45,4.64-20.14-8.57-27.37S704.32,769.25,704.32,769.25Z"/><path class="cls-8" d="M839.77,857.33c16.59-12.24,29.51-31.52,38.45-57.38,6.75-19.53,10.82-51.15,10.9-51.84l-35.79,7.19c-1.69,14.14-15.69,56.76-38.67,71.88-10.43,6.87-30,15.21-45.31,10.72l-5.42,37.42c26.09,7.64,52.73-2.59,72.45-15.62C837.52,858.94,838.66,858.15,839.77,857.33Z"/><path class="cls-9" d="M503.57,1134.93S474,1130,465.11,1133.1s-30,17.46-28.45,5c.88-7.16,22-21.86,27.37-26.65s8.38-12.27,15.56-11.62c3.41.32,7.39,6.77,13,9.81a102.3,102.3,0,0,0,21,8s8.78,10.4,4.7,14.23C512.48,1137.37,503.57,1134.93,503.57,1134.93Z"/><path class="cls-9" d="M701.32,1341.86s10.16,28.15,17.23,34.43,29.89,17.61,18.26,22.37c-6.67,2.74-29.82-8.48-36.64-10.83s-14.8-1.31-17.74-7.89c-1.39-3.13,2.29-9.75,2.19-16.16a102.53,102.53,0,0,0-3.33-22.26s4.77-12.75,10.11-11.06C699.09,1332.88,701.32,1341.86,701.32,1341.86Z"/><path class="cls-15" d="M771.93,1049c-2.38,24.69-6.37,56.64-13.09,95.63-12.85,74.66-28,149.89-35.36,186A28.15,28.15,0,0,1,697,1353.32l-6.92.24c-13.92.48-25.15-11.54-24-25.75l18.84-244.17,2.59-43.73S775.85,1008.19,771.93,1049Z"/><path class="cls-9" d="M615.76,1023.15c.71,10.3,35.81,26.62,81.51,23.19s81.86-9.08,81.15-19.37-38-21.34-83.71-17.9S615.05,1012.86,615.76,1023.15Z"/><path class="cls-16" d="M739.08,1033l-64.27,137.28a52.75,52.75,0,0,1-56.2,29.71h0a23.27,23.27,0,0,1-19.09-27.56L628,1031c.79-3.48,13.06-5,16.55-5.28C673.49,1023.51,740.94,1020.11,739.08,1033Z"/><path class="cls-17" d="M671.67,857.06s21-32.34,65.39-20c21,5.83,47,5.21,48.56,44.94,1.43,35.67,4.34,77.27-7.2,145,0,0-71.66-28.42-162.66-3.82.32-3.89,5.34-104.48,27-158.63C649,849,664.64,867.35,671.67,857.06Z"/><path class="cls-17" d="M620.84,854.43l38.35,36.8s117,14.38,127-5.88c16.57-33.45.49-54.74.49-54.74s-36.26,3.84-66.27,2.63c-6.84-.27-19.64,0-26.37.27C647.14,835.15,620.84,854.43,620.84,854.43Z"/><path class="cls-9" d="M620.84,854.43c-3.4,3.75-2.69,16.35,10.37,27.47s23.79,14.88,28,9.33c3.15-4.18-.57-20.92-13.06-31.26C633.27,849.32,623.27,851.75,620.84,854.43Z"/><path class="cls-15" d="M646.28,1025.62s62.07-9.92,122.63,3.79a5.65,5.65,0,0,1,4.38,6.06L771,1058.09,707.65,1042Z"/><path class="cls-8" d="M702.64,833.27c6,9.83,23,18.21,33.52,14.92,9-2.79,2.83-14.76,2.83-14.76-4-.75-5.91-3.16-5.6-7.24l.4-5,.19-2.49.62-7.95.55-7.15,2.28-29.3-12.34,28.22-2.1,4.8-7.23,16.54a15.93,15.93,0,0,1-13,9.43Z"/><path class="cls-18" d="M723,807.29s3.49,9.32,11,11.38l.62-7.95C730,809,723,807.29,723,807.29Z"/><path class="cls-9" d="M704.32,769.25s1.11,4.82-1.72,14.67c-4.13,14.41,12.33,20.52,16.57,16.43.53-.51,0-25.06,0-25.06l-5.26-3.16Z"/><path class="cls-8" d="M766.29,779.12c.1-18.77-12.15-34.06-27.36-34.15S711.29,760,711.19,778.81s12.14,34.05,27.36,34.14S766.18,797.89,766.29,779.12Z"/><path class="cls-9" d="M749.79,752.93c-.77,1,3.47,18.55-28.95,22.55s-12.73-35.2,11.18-36c34.51-1.08,39.41,22.15,36,30.48S749.79,752.93,749.79,752.93Z"/><path class="cls-9" d="M724.45,769.93s-13.32,13.88-8.81,28.17c0,0-7.63-8.43-7.78-11.56s1.95-14.43,1.95-14.43Z"/><path class="cls-8" d="M714.84,784c3.11,3,7.47,3.33,9.74.74s1.61-7.12-1.49-10.12-7.47-3.32-9.75-.73S711.74,781,714.84,784Z"/><path class="cls-12" d="M741.4,779.3a.62.62,0,0,0,.08-1.18,6.79,6.79,0,0,0-8.13,1.76.64.64,0,0,0,0,.89.7.7,0,0,0,.89,0,10.73,10.73,0,0,1,6.74-1.47A.61.61,0,0,0,741.4,779.3Z"/><path class="cls-12" d="M734.77,785.93c-.06,1.5.78,2.74,1.86,2.78s2-1.14,2.06-2.63-.77-2.74-1.86-2.78S734.82,784.44,734.77,785.93Z"/><path class="cls-12" d="M763.75,782.7a.67.67,0,0,0,.53-.18.63.63,0,0,0,0-.89,6.78,6.78,0,0,0-8.18-1.46.63.63,0,0,0-.32.82.67.67,0,0,0,.82.32,10.8,10.8,0,0,1,6.8,1.21A.65.65,0,0,0,763.75,782.7Z"/><path class="cls-12" d="M754.58,786.09c-.62,1.37-.32,2.83.67,3.28s2.29-.28,2.91-1.64.32-2.83-.67-3.28S755.2,784.73,754.58,786.09Z"/><path class="cls-9" d="M668.44,812l.8-1.56c-1-.68-3.49-8.27-1.55-14.51,1.72-5.54,6.26-8.34,13.47-8.31,21.41.07,25-17.46,25-17.64l-1.71-.32c-.13.66-3.36,16.27-23.28,16.21-10.63,0-14.26,5.72-15.43,10.56C664.13,803.09,666.6,811.06,668.44,812Z"/><path class="cls-16" d="M625.76,1200.65c-26-.8-87.69-26.45-121.91-41.57a26.42,26.42,0,0,1-13.55-34.73l.73-1.67a26.85,26.85,0,0,1,28.43-15.87l118,16.91S674.26,1202.15,625.76,1200.65Z"/><path class="cls-14" d="M681,1159.07l-1.53-.58c.2-.52,19.62-52,25.75-68.2,6.23-16.41,24.68-29,25.46-29.55l.92,1.35c-.19.13-18.81,12.86-24.85,28.78C700.58,1107,681.16,1158.55,681,1159.07Z"/><path class="cls-1" d="M752.8,799.48s-2.59,5.76-8,5.75c-6.68,0-7.95-7-7.95-7S745,801,752.8,799.48Z"/><path class="cls-8" d="M582.08,915.23c-20.47-2.41-41.26-12.74-61.84-30.76-15.55-13.61-37.95-42.81-38.36-43.37l38.27-10.49c8.48,11.44,41.33,44.25,68.78,46,11.79.74,22.66-3.87,33.18-14.11a7,7,0,0,1,5.91-1.9c4.19.62,11.45,3.39,21.16,13.52,6.78,7.08,1.89,13.92,1.89,13.92-18.85,19.58-41.28,29.11-64.87,27.57C584.83,915.51,583.46,915.39,582.08,915.23Z"/><path class="cls-8" d="M855.78,760.39C852.7,755.1,849,743.3,846,738c-1.29-2.32-5.1-10.41-3-12,1.84-1.37,7.91,3.66,10.51,6.39,1.86-21.49,12.61-48.41,11-5.18h.06c.44-3.69,2.64-30.93,8.67-28.64,4.42,1.68,1.91,24,1.26,30.1l.17,0c1.19-6.12,3.75-24.82,8.05-23.41,5.65,1.84,1.55,25.82,1.55,25.82s2.89-20,8.21-15.61c3,2.47.9,14.23-.52,21.53h0c-.3,1.53-.57,2.87-.75,3.88a10.48,10.48,0,0,1-.66,2.21,88.77,88.77,0,0,1-7.2,19.25,12.78,12.78,0,0,1-14.06,7.95C862.39,769.45,857.12,762.69,855.78,760.39Z"/><path class="cls-8" d="M520.7,840.33c.28-6.12-1.86-18.3-1.7-24.42.07-2.66-.3-11.6-2.9-12-2.26-.36-5.31,6.9-6.35,10.53-11.6-18.19-33.59-37.07-12.17.51l-.05,0c-2.09-3.08-16.65-26.2-20.94-21.38-3.14,3.54,9.43,22.17,12.82,27.27l-.13.11c-3.89-4.88-14.81-20.26-18-17-4.16,4.25,10.57,23.6,10.57,23.6s-11.81-16.38-14.5-10c-1.52,3.58,5.79,13,10.43,18.85h0c1,1.22,1.83,2.28,2.46,3.09a9.75,9.75,0,0,0,1.61,1.65,88.1,88.1,0,0,0,15.29,13.74,12.79,12.79,0,0,0,16.15.54C519.05,851.42,520.58,843,520.7,840.33Z"/><ellipse class="cls-19" cx="1388.41" cy="1391.21" rx="269.59" ry="36.33"/><rect class="cls-19" x="1118.82" y="1328.4" width="539.17" height="62.81"/><ellipse class="cls-20" cx="1388.41" cy="1328.4" rx="269.59" ry="36.33"/><path class="cls-8" d="M1565.86,546.17c-3.13-6.15-6.62-19.7-9.64-25.91-1.31-2.69-6.9-15.17-4.43-16.86,2.15-1.47,10.45,7.62,13.21,10.85,3.37-24.33,44.9-1.29,42.87,6.94h0c-.42,1.73-.81,3.23-1.07,4.38a11,11,0,0,1-.88,2.47c-4.25,13.55-9.23,21.55-9.23,21.55a14.62,14.62,0,0,1-16.26,8.43C1572.73,556.74,1567.23,548.83,1565.86,546.17Z"/><path class="cls-11" d="M1340.37,754.75s7.13-40.77,81.61-46.7c57.36-4.57,115.5,28.31,122.41,78.29,9.54,69.13,11.24,106.09,3.54,140.91,0,0-157.83-27.81-206.68,5.73,0,0,16.78-64.14-2-154.63A45.3,45.3,0,0,1,1340.37,754.75Z"/><path class="cls-11" d="M1266.82,579.47c15.78,51.62,101.41,130.54,132.32,131.8,6.64.27-57.15,80.27-58.22,76.87-5.36-17-10.52-24.47-21.9-36.88-37.28-40.63-88.19-95.12-96.79-145.24Z"/><path class="cls-11" d="M1436.75,708.61s109.77-43.26,124.42-156.67a11.89,11.89,0,0,1,14.3-10.09l21.47,4.63a8.66,8.66,0,0,1,6.83,8.26c.47,21.34-2.42,90.42-51.46,178.88-5,9.07-15.07,23.12-8.08,52.62Z"/><path class="cls-9" d="M1341.09,932.87c.09,9.94,46.35,15,103.63,14.19s103.15-10,103-19.91-47.59-26.81-104.88-25.94S1341,922.94,1341.09,932.87Z"/><path class="cls-8" d="M1423,698.09l1.78-19.26.52-5.61,3-33,7.77,30.51,4.66,18.32,1.48,5.8c1,3.93,3.6,4.25,7.27,7.08,1.49,1.14,10.91,8,3.06,13.66-9.78,7.06-31.49,4.1-41.16-3.73C1411.45,711.86,1422.41,704.31,1423,698.09Z"/><path class="cls-21" d="M1450.53,623.42a41.49,41.49,0,0,1,3.57,16.88c0,9.8-14.4-11.26-14.4-11.26Z"/><ellipse class="cls-8" cx="1429.3" cy="652.11" rx="28.1" ry="33.89" transform="translate(-135.51 512.39) rotate(-19.42)"/><path class="cls-9" d="M1400.1,652.11l13-4.2a9.9,9.9,0,0,0,6.26-5.87c1.83-4.84,4.65-7.73,17.16-9.89,15.85-2.74,24.24-14.3,24.2-22.89,0-8.76-9.29-12.75-16.34-7.08s-5.73-4.86-13.55-4.29c-14.6,1.05-14.94,12.55-26.64,14.65-15.33,2.76-40.17,20.1-21.55,44.18Z"/><path class="cls-12" d="M1430.45,650.42a.57.57,0,0,0-.46-1,6.18,6.18,0,0,0-5.66,5,.58.58,0,0,0,.41.69.62.62,0,0,0,.7-.41,9.78,9.78,0,0,1,4.69-4.17A.51.51,0,0,0,1430.45,650.42Z"/><path class="cls-12" d="M1429.55,658.08c.62,1.21,1.83,1.82,2.71,1.37s1.09-1.8.47-3-1.84-1.83-2.72-1.38S1428.93,656.87,1429.55,658.08Z"/><path class="cls-12" d="M1450.72,644.4a.42.42,0,0,0,.25-.34.7.7,0,0,0-.38-.71,4,4,0,0,0-5.55,1.85.69.69,0,0,0,.16.78.42.42,0,0,0,.63-.05,6,6,0,0,1,4.61-1.54A.34.34,0,0,0,1450.72,644.4Z"/><path class="cls-12" d="M1446.85,651.19c.11,1.35,1,2.38,2,2.3s1.69-1.25,1.58-2.6-1-2.39-2-2.3S1446.73,649.83,1446.85,651.19Z"/><path class="cls-21" d="M1382.66,656.72s13.38,17.89,26.72,16.59c0,0-13.73-12.89,6.53-26.8C1415.91,646.51,1394.84,647.62,1382.66,656.72Z"/><path class="cls-8" d="M1403.35,663.78c3.16,1.18,6.58-.15,7.64-3s-.65-6.08-3.81-7.27-6.59.15-7.64,3S1400.18,662.6,1403.35,663.78Z"/><path class="cls-21" d="M1415.91,646.51s1.75,17,5.8,19.45,26.71-.94,36.29-7.19h0a22.22,22.22,0,0,1-13.27,25.69,32.32,32.32,0,0,1-10.69,2.22h0c-7.57.27-15.32-1.25-19.77-7.39-1.35-1.87-1.37-15.13-1.37-15.13s-.57-7.66-5.72-10.62C1407.18,653.54,1411.23,648,1415.91,646.51Z"/><path class="cls-1" d="M1453.76,665.94a57.8,57.8,0,0,1-17.63,5.21s3.2,8.38,12.32,4.65C1453.74,673.63,1453.76,665.94,1453.76,665.94Z"/><path class="cls-9" d="M1441.17,601.37a4.2,4.2,0,0,1-4-2.78l.73-.23c0,.12,1,2.95,4.57,2.07l.18.75A6.4,6.4,0,0,1,1441.17,601.37Z"/><path class="cls-1" d="M1440.06,626.8l-.18-.34a50.62,50.62,0,0,0,7.81-5.37c3.47-3,7.49-7.41,6.9-12-.32-2.47-1.07-4-2.29-4.68-2-1.07-4.83.27-7.36,1.45l-1.14.53-.15-.35,1.13-.52c2.61-1.23,5.57-2.61,7.7-1.44,1.34.73,2.15,2.36,2.49,5,.48,3.75-2,8-7,12.31A50.51,50.51,0,0,1,1440.06,626.8Z"/><path class="cls-1" d="M1398.33,617l0-.38c16.81-1.25,22.73-12.09,22.78-12.2l.34.18C1421.36,604.73,1415.35,615.76,1398.33,617Z"/><path class="cls-5" d="M1435.62,712.72s12.79-5,16.5-2.14,2.22,17.46-3.72,19.18S1429.91,716.63,1435.62,712.72Z"/><path class="cls-9" d="M1251.07,604.77c-14.92,11.52-25.59,7.34-28.84,1.25s4.37-16.52,17-23.29,24.29-9.35,27.55-3.26S1262.44,596,1251.07,604.77Z"/><path class="cls-22" d="M1474.28,876.05a4.21,4.21,0,1,1-8.29-1.52c.43-2.29,2.15-4.19,4.44-3.77C1473.67,871.36,1474.71,873.77,1474.28,876.05Z"/><path class="cls-22" d="M1470.06,838.36a4.22,4.22,0,0,1-8.29-1.53c.42-2.28,2.15-4.19,4.44-3.76C1469.45,833.66,1470.48,836.07,1470.06,838.36Z"/><path class="cls-22" d="M1464.84,795.69a4.22,4.22,0,0,1-8.29-1.53c.43-2.29,2.15-4.19,4.44-3.77C1464.23,791,1465.27,793.4,1464.84,795.69Z"/><path class="cls-9" d="M1443.26,1300.5s-.41,15.33,10.62,20.26,43.43,10.55,30.72,19.75c-7.29,5.28-40-.13-49.36-.63s-18.24,2.78-24.85-3.33c-7.27-6.71,2-37.7,2-37.7s7.82,4.28,15,4.49C1437.88,1303.65,1443.26,1300.5,1443.26,1300.5Z"/><path class="cls-23" d="M1500.11,920.78c34.83,8.08,41.11,11.87,38.92,32.71a994,994,0,0,1-19.85,117.62c-20.78,87.93-44.49,176.39-56.07,218.79-4.14,15.17-18.75,25.64-35.4,25.37l-8.94-.15c-18-.3-31.81-15.28-29.6-32.09l38-289,2.75-61.17Z"/><path class="cls-9" d="M1306.37,1300.5s-.4,15.33,10.62,20.26,43.43,10.55,30.72,19.75c-7.29,5.28-40-.13-49.36-.63s-18.24,2.78-24.85-3.33c-7.27-6.71,2-37.7,2-37.7s7.82,4.28,15,4.49C1301,1303.65,1306.37,1300.5,1306.37,1300.5Z"/><path class="cls-23" d="M1500.11,920.78l-165.63,370.31c-6.07,15.23-21.8,25.05-39.09,24.4l-7.53-.28c-17.79-.67-30.58-16.53-26.46-32.82l94-349.52C1357.66,925,1424.78,906.34,1500.11,920.78Z"/><path class="cls-14" d="M1410.46,1122.08a.84.84,0,0,1-.81-1.11l34.2-105.66c1-2.47,2-5,3.05-7.69,6.15-15.91,13.8-35.71,35.66-49.32a.85.85,0,0,1,1.17.27.85.85,0,0,1-.27,1.17c-21.38,13.31-28.91,32.82-35,48.49-1,2.7-2,5.24-3,7.67l-34.18,105.59A.84.84,0,0,1,1410.46,1122.08Z"/><path class="cls-8" d="M1254.81,580.68c1-6.82,0-20.78.94-27.62.39-3,1-13-1.86-13.86-2.5-.72-6.78,7-8.37,10.93-10.91-22-33.43-46.21-13.74-1.12l-.06,0c-2-3.73-15.66-31.67-21-26.86-3.94,3.53,8,26.16,11.22,32.34l-.16.11c-3.8-6-14.28-24.77-18.21-21.58-5.17,4.19,9.13,27.93,9.13,27.93s-11.37-20-15.13-13.25c-2.13,3.8,5,15.41,9.52,22.57h0c1,1.5,1.79,2.81,2.41,3.81a11.62,11.62,0,0,0,1.61,2.08c8.33,11.49,15.58,17.51,15.58,17.51a14.63,14.63,0,0,0,18.1,2.84C1251.65,592.89,1254.36,583.64,1254.81,580.68Z"/><path class="cls-17" d="M1440.27,728c-3.84,18.63-25,91.41-126.7,129.13a42.67,42.67,0,0,0-17,11.56l-18.45,20.7a7.34,7.34,0,0,0,2.56,11.62l27.09,11.78A39.94,39.94,0,0,0,1337,913.9c33-11.71,117.76-72.08,117.72-191.64,0-5.1-4.19-1.14-9.13.14h0A7.32,7.32,0,0,0,1440.27,728Z"/><path class="cls-24" d="M1443.05,708.76s-17.53-4.77-21.31-10.57-20.43,9.48-19.82,13.62,34.19,24.89,36.06,21.82S1447.52,712.4,1443.05,708.76Z"/><path class="cls-24" d="M1443.05,708.76s2.08-6.53.6-9.88c0,0-1-3,1.58-3s17.52,8.85,19,11.78,2.73,17.07-1.77,18.45-16.68-13-18.09-14.42A4.17,4.17,0,0,1,1443.05,708.76Z"/><path class="cls-9" d="M1447.83,730.1c-3.63,0-6.86-2.89-7-3l.42-.46s3.54,3.15,7.14,2.83,6-7.23,6.07-7.29l.58.21c-.1.3-2.67,7.35-6.6,7.7Z"/><path class="cls-9" d="M1789.41,709.77h-.14a.59.59,0,0,1-.38-.29,25.92,25.92,0,0,1,7.82-34l20.44-14.15a56,56,0,0,0,23.38-36.51,56.76,56.76,0,0,0-9.33-42.57l-21.73-31.37a36.27,36.27,0,0,0-39.87-14.18,144.69,144.69,0,0,1-121.81-20.27c-2.81-2-5.63-4.08-8.39-6.31-37.8,4.65-75.52,3.25-109.1-4.06s-61.58-20-81.28-36.87c-17.83-15.23-28-33.25-29.33-52.1-2-28.07,12-49.66,37.52-57.75a.59.59,0,0,1,.35,1.12c-25,7.91-38.69,29.05-36.7,56.55,1.33,18.53,11.34,36.27,28.92,51.29,19.55,16.71,47.48,29.37,80.77,36.62,33.53,7.29,71.2,8.68,109,4a.58.58,0,0,1,.44.12c2.8,2.27,5.66,4.43,8.51,6.42a143.61,143.61,0,0,0,120.82,20.11,37.43,37.43,0,0,1,41.15,14.63l21.73,31.37a58,58,0,0,1,9.53,43.45,57.25,57.25,0,0,1-23.87,37.27l-20.44,14.14a24.75,24.75,0,0,0-7.77,31.92l211.7-148a24.84,24.84,0,0,0-31.75-3.06l-24,16.61c-26.14,18.13-62.3,11.4-80.6-15l-21.71-31.33a37.38,37.38,0,0,1-5.61-12.54.58.58,0,0,1,.43-.7.59.59,0,0,1,.71.43,36,36,0,0,0,5.43,12.14l21.71,31.33c17.93,25.87,53.36,32.47,79,14.71l24.06-16.61a26,26,0,0,1,33.73,3.71.61.61,0,0,1,.16.46.6.6,0,0,1-.25.42l-212.8,148.8A.67.67,0,0,1,1789.41,709.77ZM1585.22,495.59h-.06c-33.24-3.25-66-12.64-89.92-25.74-27.58-15.13-42.75-34.35-43.86-55.59a.59.59,0,1,1,1.17-.06c1.09,20.81,16,39.7,43.26,54.62,23.76,13,56.37,22.37,89.47,25.6a.59.59,0,0,1,.52.64A.58.58,0,0,1,1585.22,495.59ZM1494,357.41a.56.56,0,0,1-.33-.1c-6.12-4.21-12.16-8.13-17.94-11.65-4.6-2.84-9.4-5.66-14.66-8.63l-16.12-9-10.44,6.87c-.55.38-5.47,3.64-7.84.27l-9.37-13.54a6.26,6.26,0,0,1-.8-4.32,4.46,4.46,0,0,1,2.32-2.93L1763.34,75.79c1.55-.94,4.14.62,6.06,2.09,6,4.61,13.75,14.74,12.19,20.11-.29,1-2.48,3.51-16.92,14.18l2,13.28c.9,5.82,1.9,11.56,3,17,1,5.07,2.06,10.25,3.3,15.42a70.19,70.19,0,0,1,12.83-28.37c16.35-21.19,41.44-27,67.12-15.41,17.24,7.75,30.67,23.46,38.86,45.43,9,24.28,11.38,55.06,6.73,89a.59.59,0,1,1-1.16-.16c4.62-33.75,2.32-64.33-6.66-88.43-8.08-21.67-21.31-37.16-38.25-44.78-25.15-11.3-49.71-5.67-65.71,15.07a69.39,69.39,0,0,0-13.12,30.51.59.59,0,0,1-.55.49.57.57,0,0,1-.59-.45c-1.5-6.07-2.83-12.16-3.94-18.1-1.09-5.49-2.1-11.24-3-17.08L1763.45,112a.59.59,0,0,1,.24-.56c14.15-10.44,16.58-13.11,16.78-13.77,1.39-4.83-6.17-14.54-11.78-18.85-2.63-2-4.16-2.38-4.71-2L1419.39,315.32a3.38,3.38,0,0,0-1.8,2.2,5,5,0,0,0,.63,3.39l9.37,13.54c1.73,2.48,6-.44,6.21-.57l10.75-7.08a.58.58,0,0,1,.61,0l16.43,9.23c5.28,3,10.09,5.81,14.7,8.65,5.8,3.53,11.85,7.47,18,11.69a.58.58,0,0,1,.15.81A.57.57,0,0,1,1494,357.41Zm362.72-23.34a.59.59,0,0,1-.49-.27c-3.9-6.17-16.83-26.55-19.68-29.79a425.69,425.69,0,0,1-28.19-46.86c-2.41-4.67-4.85-9.63-7.44-15.15-1.59-3.39-3.2-7-4.81-10.68a.58.58,0,0,1,.19-.7.59.59,0,0,1,.72,0,38.53,38.53,0,0,0,12.74,7.26c18.88,6.19,34.64-7,35.31-7.54,2.57-2.18,2.72-6.61.34-9.87a7.32,7.32,0,0,0-4.94-3.08,5,5,0,0,0-3.92,1.13c-.51.42-12.42,10-25.16,5.76-7.66-2.54-14.47-9.84-20.26-21.68-3-6.1-3.55-15.75-1.51-25.83,2.18-10.84,6.89-20.5,13.26-27.2,6.86-7.23,18.77-14.24,36.59-6.66,13.39,5.7,23.58,17.14,30.29,34,7.86,19.77,10.57,46,7.81,76-2.57,27.95-9.78,56.66-20.31,80.84a.57.57,0,0,1-.49.35Zm-58.59-101c1.29,2.93,2.58,5.77,3.85,8.48,2.59,5.51,5,10.46,7.42,15.12a423.74,423.74,0,0,0,28.07,46.67c2.68,3,13.86,20.56,19.16,28.94,19.06-44.46,29.27-111.58,12-154.88C1862,160.8,1852.05,149.58,1839,144c-17.2-7.32-28.68-.57-35.28,6.38-13.47,14.18-17.33,39.89-11.55,51.71,5.64,11.56,12.23,18.65,19.57,21.09,12.14,4,23.57-5.16,24-5.55a6.27,6.27,0,0,1,4.82-1.4,8.54,8.54,0,0,1,5.73,3.56c2.74,3.75,2.5,8.88-.53,11.45-.68.58-16.93,14.16-36.42,7.76A38.76,38.76,0,0,1,1798.08,233Z"/><path class="cls-25" d="M1758.15,89.23l-344.6,238.58c-3.58,2-1.69,5.89-1.35,6.38l9.29,13.42c2,2.87,6.53-.11,7-.44,0,0,343.8-226.11,346.87-236.57C1777.48,103.43,1761.71,87.07,1758.15,89.23Z"/><path class="cls-26" d="M1756.3,110.7l1.28,8.65,2.82,18.86c.85,5.66,1.82,11.33,2.92,17,1.31,7.11,2.86,14.21,4.65,21.19a416.32,416.32,0,0,0,27.16,77.29c2.37,5,4.8,10.06,7.36,15a416.58,416.58,0,0,0,27.85,46.38c3.46,3.93,21.19,32.18,21.19,32.18.84,1.8,1.68,3.65,2.44,5.46a137.17,137.17,0,0,1,7.6,22.78,143.7,143.7,0,0,1-24.43,119.11,36.63,36.63,0,0,0-.94,42.77l21.53,31.08a57.16,57.16,0,0,0,79.52,14.46l24-16.61a25.23,25.23,0,0,1,32.87,3.48s-18.41,24.31-101.78,84.55c-101,73-111,64.25-111,64.25a25.34,25.34,0,0,1,7.75-33.11l20.44-14.14c25.94-18,19.7-68.61-7.09-110.63-9-14.13-25.21-18.55-40.34-14.17a143.58,143.58,0,0,1-120.91-19.61,147.7,147.7,0,0,1-18.54-15.24c-1.19-1.19-2.36-2.36-3.52-3.58,0,0-20.18-26.53-22.66-31.1a416.1,416.1,0,0,0-33.31-42.05q-5.55-6.18-11.29-12.07a419.07,419.07,0,0,0-63.83-53.58c-5.84-4-11.8-7.86-17.87-11.53-4.8-2.95-9.68-5.78-14.61-8.54l-16.65-9.29-7.65-4.25,45.55-31.5,233.87-162Z"/><path class="cls-25" d="M1639.17,518.56a5.8,5.8,0,0,1-3.29,1.55c-38.81,5.29-77.54,4.19-112-3.16-33.27-7.1-61.16-19.62-80.67-36.22-17.6-15-27.57-32.73-28.85-51.31-1.89-27.62,12-48.92,37.23-57,25.55-8.16,55.86,0,75.43,20.29,12.45,12.92,18.53,25.74,18.07,38.13-.75,20-18.8,30.52-19.56,31-3.2,1.82-7.73.39-10.13-3.19s-1.74-7.95,1.44-9.78c.32-.18,13.36-8,13.8-21.1.27-7.86-4.15-16.56-13.12-25.86-15.21-15.78-73.65-18.81-71.54,24.62,2.83,58.36,113,89.05,185.59,79.17,3.81-.52,7.86,2.29,9,6.27A6.45,6.45,0,0,1,1639.17,518.56Z"/><path class="cls-25" d="M1853.33,368.81a5.82,5.82,0,0,0,2.59-2.56c18.28-34.64,30.55-71.39,35.47-106.28,4.76-33.68,2.56-64.18-6.33-88.2-8-21.67-21.27-37.13-38.28-44.71-25.3-11.26-50.08-5.5-66.3,15.42-16.43,21.19-19.17,52.46-6.83,77.81,7.86,16.13,17.82,26.24,29.61,30.05,19.07,6.18,35.12-7.17,35.8-7.74,2.8-2.38,3-7.12.47-10.6s-6.86-4.37-9.67-2c-.29.23-12.09,9.8-24.56,5.72-7.47-2.45-14.13-9.58-19.78-21.2-9.6-19.7,7.61-75.63,47.68-58.75,53.84,22.69,44.85,136.69,10.65,201.49-1.8,3.4-.55,8.17,2.78,10.66A6.45,6.45,0,0,0,1853.33,368.81Z"/><path class="cls-25" d="M1632.49,268.52l45.88,33.62a15.5,15.5,0,0,0,16.94.92L1732,281.88c9.93-5.75,21.57,4.18,17.47,14.89l-12.56,32.82a15.51,15.51,0,0,0,5,17.81l41.58,32.28a12.09,12.09,0,0,1-6.83,21.62l-54.13,2.6a15.54,15.54,0,0,0-13.46,9.24l-20,45.45a10.81,10.81,0,0,1-20.08-.74l-18.18-51.09a15.52,15.52,0,0,0-14.3-10.32l-42.71-.89a10.71,10.71,0,0,1-6.11-19.35l36.73-26.92a15.55,15.55,0,0,0,6.12-15.17L1620.37,276A7.69,7.69,0,0,1,1632.49,268.52Z"/><path class="cls-9" d="M1690.11,470.44a11.19,11.19,0,0,1-10.34-6.7l-22.36-49.4a15,15,0,0,0-14.54-8.75l-42.64,2.66a11.3,11.3,0,0,1-8.12-19.8l34.37-29.88a14.85,14.85,0,0,0,4.65-15l-14.84-57a8.27,8.27,0,0,1,12.32-9.14l48.51,29.69a14.94,14.94,0,0,0,16.32-.47l34.76-24.17a12.76,12.76,0,0,1,19.54,14L1738,330.2a14.87,14.87,0,0,0,6.2,16.68l44.11,28.71a12.67,12.67,0,0,1-5.25,23.18l-53.72,7.09a14.88,14.88,0,0,0-12.17,9.94l-16.19,47a11.21,11.21,0,0,1-10.25,7.67Zm-46.32-66.05a16.19,16.19,0,0,1,14.68,9.47l22.36,49.4a10.23,10.23,0,0,0,19-.88l16.2-47a16,16,0,0,1,13.12-10.71l53.72-7.1a11.5,11.5,0,0,0,4.77-21l-44.12-28.71a16,16,0,0,1-6.68-18l9.79-33.76a11.6,11.6,0,0,0-17.75-12.75l-34.76,24.16a16.09,16.09,0,0,1-17.6.51L1628,278.35a7.11,7.11,0,0,0-10.58,7.85l14.84,57a16,16,0,0,1-5,16.21l-34.37,29.88a10.13,10.13,0,0,0,7.28,17.76l42.64-2.67Q1643.3,404.39,1643.79,404.39Z"/><path class="cls-8" d="M1580.3,498.29s-8.81-4.74-11.42,3.84c-3.31,10.93.95,19,5,19.66,3.39.53,5.27-12.78,5.27-12.78s-1,19.56,5,18.59,5.66-18.59,5.66-18.59.91,18.59,6.57,18.59,4.68-17.74,4.68-17.74-1.07,17.95,5.41,17c2.87-.42,5.7-12.24,5.64-17.59,0-5.06-4-6.24-9.8-6.54a9.24,9.24,0,0,0-9.24-2.06c-1.33.45-3.53-2.13-4.58-2.34A21.67,21.67,0,0,0,1580.3,498.29Z"/><path class="cls-9" d="M929,1454.3s-11.89,23.23-8,31.72,20.21,27.75,7.78,27.5c-7.14-.15-23.73-19.45-29-24.26s-12.31-7-13-14.15c-.76-7.81,33.42-36.92,33.42-36.92s2.87-1.18,7,2.45C933.28,1445.87,929,1454.3,929,1454.3Z"/><path class="cls-27" d="M1071.32,1189.33s10.2,160.25-117.07,264.07c-8.81,7.19-22.5,16.33-31.9,9.92l-9.2-6.13c-10.38-7.09-17.16-22.07-2.95-38.6,31.82-37,79.11-147.07,70.07-242.17Z"/><path class="cls-9" d="M1148.24,1169.22c-39.28,15-164.86,9-168,7.2-5.22-3-5.21-7.1-5.21-7.1l82.18-31.75,62.8,1.54,19.3,4.12,13.61,21S1153,1167.42,1148.24,1169.22Z"/><path class="cls-8" d="M1243.28,835.3c-.64-5.86.72-18,.18-23.86-.23-2.56-.41-11.26,2.11-12.07,2.19-.71,5.62,5.82,6.86,9.16,10.25-19.43,30.64-41.19,12-1.46l.06,0c1.86-3.31,14.71-28,19.21-24,3.29,2.91-7.89,22.92-10.89,28.39l.13.08c3.51-5.33,13.27-21.94,16.57-19.32,4.33,3.44-8.92,24.49-8.92,24.49s10.57-17.71,13.59-12c1.71,3.22-4.88,13.52-9.06,19.88h0c-.87,1.33-1.65,2.5-2.22,3.38a10.68,10.68,0,0,1-1.47,1.85,100.73,100.73,0,0,1-14.14,15.72s-6.61,7.67-15.79,3.1C1245.59,845.75,1243.57,837.85,1243.28,835.3Z"/><path class="cls-8" d="M943.67,810.24c3.1-5,7.08-16.54,10.09-21.63,1.31-2.21,5.21-10,3.28-11.8-1.67-1.58-7.58,2.84-10.13,5.32-.91-22-10-50.36-10.17-6.45h0c-.26-3.79-1.27-31.58-7-29.93-4.22,1.22-2.73,24.09-2.36,30.32l-.16,0c-.88-6.33-2.56-25.52-6.66-24.57-5.39,1.24-2.47,26-2.47,26s-1.93-20.54-7.11-16.69c-2.92,2.17-1.4,14.3-.35,21.85h0c.22,1.58.42,3,.55,4a11.22,11.22,0,0,0,.53,2.31,100.64,100.64,0,0,0,6,20.26s2.67,9.77,12.92,9.59C937.1,818.68,942.32,812.42,943.67,810.24Z"/><path class="cls-9" d="M1090.05,1490.71s.67,12.74,9.39,16.11,33.82,5.93,24.7,14.38c-5.23,4.85-30.58,2.5-37.71,2.69s-13.75,3.48-19.18-1.15c-6-5.1-.85-31.4-.85-31.4s6.25,3.05,11.78,2.75C1086.15,1493.67,1090.05,1490.71,1090.05,1490.71Z"/><path class="cls-27" d="M1148.24,1169.22c-.1,26.51-.4,61-6.23,103-11.11,80.07-24.6,160.81-31.24,199.53a30,30,0,0,1-27.4,25.15l-7.37.5c-14.83,1-27.22-11.43-26.55-26.62l11.61-261-80.79-33.35C1017.14,1159.66,1148.31,1153.66,1148.24,1169.22Z"/><path class="cls-9" d="M1056.68,1297c-.06-.48-6.35-47.53-11.08-64.38-4.68-16.69-26.4-31.21-26.62-31.35l.62-.93c.22.15,22.28,14.89,27.08,32s11,64.07,11.11,64.54Z"/><path class="cls-8" d="M1056.34,929.23l5.75-17.21,1.67-5,9.82-29.46,1.3,29.3.77,17.59.24,5.57c.17,3.78,2.65,4.57,5.67,7.86,1.22,1.33,9,9.39.17,13-11.07,4.54-31.75-2.34-39.62-11.34C1042.17,939.56,1054.49,934.79,1056.34,929.23Z"/><ellipse class="cls-8" cx="1067.89" cy="885.94" rx="28.13" ry="31.63" transform="translate(-282.55 567.22) rotate(-26.4)"/><path class="cls-28" d="M990.65,976.79s10.29-44.25,73.23-44.25c109.69,0,78.92,89.47,89.07,231.71,0,0-8.86-10.68-44.55-15.59-36.24-5-88.54,2.68-133.34,20.66,0,0-.59-76.29,7.75-142.15C986.12,1001,985.59,991.74,990.65,976.79Z"/><path class="cls-28" d="M938.13,804.39a14.86,14.86,0,0,1,15.19,10.42c20.5,65.78,57.2,113.75,110.56,117.73,6.44.48-83.15,114.07-82.83,110.78,2.79-29-6.09-65-20.94-86.29-28-40.17-49.62-86.49-52.25-139.26a11.47,11.47,0,0,1,10.65-12Z"/><path class="cls-28" d="M1270.83,850.23c-5.15,18.29-27.32,67.27-92.19,127.25h0q-2.54,2.34-5.17,4.71c-7.07,6.38-22.21,32.4-23.7,60.3l-87.57-110s48.34-1.29,95.61-24.67c29.12-14.4,57.83-37.17,74.57-73.19,2.68-5.75,10-7.79,15.87-4.42l18.52,10.65A8.29,8.29,0,0,1,1270.83,850.23Z"/><path class="cls-2" d="M1158.72,1006.27c-28-8.13-40.34-29.67-45.74-46.29a106.88,106.88,0,0,1-5-34.43l.91,0a106.49,106.49,0,0,0,5,34.13c5.33,16.41,17.48,37.65,45.12,45.67Z"/><path class="cls-2" d="M1111.73,952.55l-.82-.4c2.39-4.94,16.23-9.61,30.88-14.56,15.69-5.3,31.91-10.78,36.56-17.08,3.17-4.28,10.57-9.6,19.15-15.76,16.43-11.8,36.87-26.48,37.77-41.44.71-12,4.11-20.38,6.83-25.34a32.13,32.13,0,0,1,5.84-8l.62.68c-.11.1-11,10.25-12.38,32.76-.92,15.39-21.56,30.22-38.15,42.13-8.51,6.11-15.86,11.39-18.94,15.56-4.83,6.53-21.19,12.05-37,17.4C1127.62,943.34,1114,948,1111.73,952.55Z"/><path class="cls-2" d="M1121.08,976.31l-.85-.36c3.39-8,17.37-13.57,32.18-19.48,15-6,30.5-12.17,35.1-21.11,3.88-7.55,13.67-16.33,24-25.63,14.51-13,29.51-26.5,31.11-38.63A91,91,0,0,1,1256,834.7l.76.53a89.78,89.78,0,0,0-13.23,36c-1.64,12.47-16.77,26-31.41,39.19-10.29,9.24-20,18-23.82,25.37-4.76,9.25-20.43,15.5-35.58,21.54C1138.13,963.16,1124.31,968.67,1121.08,976.31Z"/><path class="cls-2" d="M1138.66,996.15l-.74-.54c.14-.19,14-19.18,30.51-26,12.17-5.07,22.56-18.38,31.72-30.13,3.17-4.07,6.17-7.91,9-11.13,1.52-1.71,3.42-3.82,5.57-6.2,12.73-14.13,36.44-40.42,38-47.83,1.83-8.69,13.13-32.55,13.61-33.56l.83.39c-.12.25-11.73,24.78-13.54,33.36-1.61,7.65-24.52,33.07-38.21,48.25-2.14,2.38-4,4.49-5.56,6.2-2.84,3.19-5.83,7-9,11.09-9.23,11.83-19.69,25.24-32.08,30.41C1152.54,977.18,1138.8,996,1138.66,996.15Z"/><path class="cls-2" d="M1108.5,933.43l-.19-.9c.48-.1,47.73-10,55.35-18.94,3.07-3.61,11.91-9.21,22.13-15.7,15.26-9.67,34.24-21.71,36-29.14,2.73-11.58,10.24-33.13,21.1-40.49l.52.76c-10.63,7.2-18,28.5-20.73,39.94-1.83,7.79-20.19,19.44-36.38,29.71-9.75,6.18-19,12-21.93,15.51C1156.53,923.37,1110.46,933,1108.5,933.43Z"/><path class="cls-2" d="M1113.86,1149.65c-.09-.53-9.06-53.15-.4-82.79,8.37-28.62-1.36-62.86-12-92.58-9.64-27-.08-47.22,0-47.42l.83.4c-.1.2-9.49,20.1,0,46.71,10.67,29.86,20.43,64.28,12,93.15-8.61,29.44.33,81.84.42,82.37Z"/><path class="cls-2" d="M1135.08,1154.93c-.09-.26-8.72-26.26-4.16-63.63,2.2-18.06.49-36-1.15-53.28-1.73-18.17-3.37-35.34.34-49l.89.25c-3.67,13.45-2,30.53-.32,48.62,1.65,17.37,3.36,35.32,1.15,53.48-4.53,37.15,4,63,4.12,63.22Z"/><path class="cls-2" d="M1075.53,1147.43c-.07-.39-6.54-39.53,6.22-75.6,12.67-35.82-4.28-86.93-4.45-87.44l.87-.29c.17.51,17.23,51.93,4.45,88-12.69,35.85-6.25,74.74-6.19,75.13Z"/><path class="cls-2" d="M1048.19,1149.7c-.14-.46-13.75-46.7-6.52-74.09,7.16-27.17,3.32-55.62,3.28-55.91l.91-.12c0,.28,3.91,28.91-3.31,56.26-7.15,27.14,6.38,73.13,6.52,73.6Z"/><path class="cls-2" d="M1021.37,1155.12l-.89-.25c.09-.31,8.7-31.65-.79-58.95-9.58-27.55-1.94-80-1.86-80.48l.91.13c-.08.52-7.69,52.71,1.82,80C1030.15,1123.2,1021.46,1154.81,1021.37,1155.12Z"/><path class="cls-2" d="M998.5,1161.15c-4.46-7.57-3.88-21.58-3.22-37.79.31-7.44.63-15.13.48-22.8-.45-24.12,6.37-87.68,6.44-88.32l.91.09c-.07.64-6.88,64.15-6.43,88.21.15,7.71-.17,15.41-.48,22.85-.66,16.08-1.23,30,3.09,37.3Z"/><path class="cls-2" d="M974.59,957.17c0-.32-3.4-31.88-22-56.32-18.7-24.62-30.57-94.61-30.68-95.31l.9-.16c.12.71,11.95,70.47,30.51,94.92,18.71,24.64,22.11,56.46,22.14,56.77Z"/><path class="cls-2" d="M993,952.42c-.07-.43-7.57-43.26-27-71.35-19.58-28.24-32.89-76.11-33-76.59l.88-.24c.14.47,13.4,48.19,32.9,76.31s27.12,71.29,27.2,71.72Z"/><path class="cls-10" d="M1061.32,846.5s19-5.52,30.88,7,4.07,25.38-8.72,26.61-16.63,22.37,0,26,21.14,29.11,7.12,36.77,31.59,52.41,13.49,88-142.53,19.34-170.71-13.48c-28.81-33.57-13.94-61.65,36.77-63.44,32.05-1.14,16.56-50.75,30-77.93S1042.47,833.73,1061.32,846.5Z"/><path class="cls-10" d="M911,989.45a28.92,28.92,0,0,1,8.52-30.81c10-9.11,24.68-12,36.5-7.14,9.52,3.9,17.45,4.33,23.59,1.29,5.77-2.87,9.87-8.71,12.17-17.36,1.17-4.37.37-11.81-.56-20.43-2.31-21.57-5.49-51.11,17.43-66.82,32-21.94,53.09-2.55,53.29-2.35l-1.26,1.34c-.81-.77-20.26-18.54-51,2.52-22,15.1-18.91,44-16.64,65.12,1,8.79,1.76,16.39.51,21.09-2.41,9.06-7,15.46-13.14,18.53-6.62,3.29-15.07,2.88-25.1-1.23-11.17-4.58-25.06-1.85-34.57,6.8a27.16,27.16,0,0,0-8,28.92Z"/><path class="cls-8" d="M1078.84,884.63a6.11,6.11,0,0,0-8.19.3c-2,2.17-1.58,5.57.94,7.59a6.11,6.11,0,0,0,8.19-.3C1081.78,890.05,1081.36,886.65,1078.84,884.63Z"/><path class="cls-9" d="M1075.52,894.3a6.72,6.72,0,0,1-5-2.52.19.19,0,1,1,.28-.26c3.53,3.84,6.76,1.91,6.79,1.89a.2.2,0,0,1,.27.06.2.2,0,0,1-.07.27A4.76,4.76,0,0,1,1075.52,894.3Z"/><path class="cls-29" d="M1711.23,1093.18s-3.44,60.33,12.71,176.68c11.66,84,25.81,168.7,32.77,209.31a31.54,31.54,0,0,0,28.75,26.39l7.73.52c15.56,1,28.56-12,27.85-27.93l-12.17-273.82-2.4-90.08Z"/><path class="cls-9" d="M1631.66,1159.48c41.21,15.69,118-6.48,176.22,7.55l.86-16.59-81.61-24.16-65.88,1.62-20.24,4.32-14.29,22S1626.72,1157.6,1631.66,1159.48Z"/><path class="cls-8" d="M1532,809.19c.68-6.16-.74-18.86-.18-25,.24-2.68.43-11.8-2.22-12.66-2.3-.74-5.9,6.11-7.2,9.62-10.75-20.39-32.14-43.22-12.53-1.53l-.06,0c-2-3.47-15.44-29.35-20.15-25.18-3.45,3.05,8.27,24.05,11.42,29.78l-.14.09c-3.68-5.59-13.92-23-17.38-20.27-4.54,3.61,9.36,25.7,9.36,25.7s-11.09-18.58-14.26-12.6c-1.79,3.37,5.12,14.18,9.51,20.85h0c.92,1.4,1.74,2.62,2.33,3.55a11.87,11.87,0,0,0,1.55,1.94A105.64,105.64,0,0,0,1506.84,820s6.93,8,16.57,3.26C1529.55,820.15,1531.67,811.86,1532,809.19Z"/><path class="cls-8" d="M1848.25,782.89c-3.26-5.26-7.43-17.35-10.59-22.69-1.37-2.31-5.46-10.47-3.44-12.38,1.76-1.65,8,3,10.63,5.59,1-23,10.46-52.83,10.67-6.77h0c.28-4,1.34-33.13,7.39-31.39,4.42,1.27,2.86,25.27,2.47,31.8l.17,0c.93-6.63,2.68-26.77,7-25.78,5.66,1.31,2.59,27.23,2.59,27.23s2-21.54,7.47-17.51c3.06,2.28,1.47,15,.37,22.92h0c-.23,1.66-.44,3.11-.58,4.21a12.14,12.14,0,0,1-.56,2.42,105.67,105.67,0,0,1-6.31,21.25s-2.8,10.25-13.56,10.07C1855.14,791.75,1849.66,785.18,1848.25,782.89Z"/><path class="cls-9" d="M1692.71,1496.74s-.7,13.37-9.86,16.9-35.47,6.22-25.9,15.09c5.49,5.09,32.08,2.61,39.56,2.82s14.42,3.65,20.12-1.21c6.27-5.35.89-32.93.89-32.93s-6.55,3.19-12.35,2.88C1696.8,1499.84,1692.71,1496.74,1692.71,1496.74Z"/><path class="cls-27" d="M1631.66,1159.48c.11,27.81.43,64,6.54,108.07,11.66,84,25.81,168.7,32.77,209.31a31.54,31.54,0,0,0,28.75,26.39l7.73.52c15.56,1,28.56-12,27.85-27.93L1723.13,1202l84.75-35C1769.19,1149.45,1631.6,1143.16,1631.66,1159.48Z"/><path class="cls-9" d="M1778.45,1499.05s-.7,13.37-9.85,16.9-35.48,6.23-25.91,15.09c5.49,5.09,32.08,2.62,39.56,2.82s14.42,3.65,20.12-1.21c6.27-5.34.89-32.93.89-32.93s-6.55,3.19-12.35,2.88C1782.54,1502.16,1778.45,1499.05,1778.45,1499.05Z"/><path class="cls-9" d="M1727.71,1293.54l-1.16-.16c.07-.49,6.68-49.94,11.66-67.7,5-17.92,28.17-33.39,28.41-33.54l.64,1c-.23.16-23,15.38-27.92,32.89C1734.38,1243.68,1727.78,1293,1727.71,1293.54Z"/><path class="cls-8" d="M1728.07,907.72l-6-18.05-1.76-5.26-10.3-30.9-1.36,30.74-.81,18.45-.26,5.84c-.17,4-2.78,4.8-5.94,8.24-1.29,1.4-9.5,9.86-.18,13.68,11.61,4.77,33.31-2.45,41.56-11.89C1742.94,918.55,1730,913.55,1728.07,907.72Z"/><ellipse class="cls-8" cx="1715.96" cy="862.31" rx="33.18" ry="29.51" transform="translate(180.59 2015.87) rotate(-63.6)"/><path class="cls-9" d="M1702.64,847c-16.54-3.57-22.27-14.36-20.4-22.54,2.39-10.49,11.8-17.94,19-12s6.13-4.44,14.3-3.45c15.27,1.85,15.58,12.32,27.56,15.86,15.82,4.66,27.78,34,9.84,48.63C1753,873.56,1715.7,849.86,1702.64,847Z"/><path class="cls-9" d="M1690.7,832.84s13.56,20.08,9,28.31-4.82,11.83,4.22,19.11-1.92,12.64,11.57,16.63,34-6.74,40.19-31.33a36.66,36.66,0,0,0-2.75-24.83Z"/><path class="cls-8" d="M1691,858.53a6.39,6.39,0,0,1,8.59.31c2.1,2.28,1.66,5.84-1,8a6.41,6.41,0,0,1-8.59-.31C1687.89,864.21,1688.33,860.64,1691,858.53Z"/><path class="cls-9" d="M1758,882h0a.43.43,0,0,1-.41-.43c0-3.51-2.88-6.27-2.91-6.3a.42.42,0,1,1,.57-.61c.13.12,3.23,3,3.18,6.92A.42.42,0,0,1,1758,882Z"/><path class="cls-9" d="M1756.91,873.62a9.63,9.63,0,0,1-1.6-.13.42.42,0,0,1-.34-.49.41.41,0,0,1,.49-.33s4.56.83,6-2.19a.42.42,0,0,1,.76.36C1761.09,873.2,1758.57,873.62,1756.91,873.62Z"/><path class="cls-9" d="M1704.63,812.62a3.11,3.11,0,0,1-1.55-.43,12.22,12.22,0,0,1-2.93-2.51c-1.53-1.64-2.84-3.06-6.55-2.89a.4.4,0,0,1-.43-.4.42.42,0,0,1,.4-.44c4.06-.18,5.66,1.52,7.19,3.16a11.59,11.59,0,0,0,2.74,2.35,2.08,2.08,0,0,0,1.84.19c2.09-.77,3.5-4.55,3.52-4.58a.41.41,0,1,1,.78.28c-.06.17-1.55,4.18-4,5.09A2.94,2.94,0,0,1,1704.63,812.62Z"/><path class="cls-9" d="M1744.17,823.67h-.05c-6.91-.69-11.19-6.82-11.36-7.08a.41.41,0,0,1,.1-.58.43.43,0,0,1,.59.11c0,.06,4.24,6.06,10.76,6.71a.42.42,0,0,1,0,.84Z"/><path class="cls-9" d="M1694.46,868.66a5.12,5.12,0,0,1-2.43-.58.21.21,0,0,1-.06-.28.2.2,0,0,1,.27-.07c.14.09,3.43,2,7.12-2a.21.21,0,0,1,.29,0,.19.19,0,0,1,0,.28A7,7,0,0,1,1694.46,868.66Z"/><path class="cls-10" d="M1797,957.61s-10.79-46.42-76.83-46.41c-115.07,0-82.79,93.86-93.44,243.07,0,0,50.65-33,181.54,5.32,0,0,5.7-80-3-149.12C1801.74,983,1802.29,973.29,1797,957.61Z"/><path class="cls-10" d="M1852.08,776.76a15.59,15.59,0,0,0-15.93,10.93c-21.5,69-60,119.33-116,123.51-6.75.5,87.23,119.66,86.9,116.21-2.93-30.41,6.39-68.17,22-90.52,29.36-42.15,52.06-90.74,54.81-146.09a12,12,0,0,0-11.17-12.64Z"/><path class="cls-10" d="M1721.93,911.21s-132.46-3.56-178.53-102.66c-2.81-6-10.5-8.18-16.65-4.64l-19.42,11.17a8.7,8.7,0,0,0-4.27,9.76c5.55,19.69,29.88,73.28,102.14,138.46,7.41,6.68,23.3,34,24.86,63.24Z"/><path class="cls-30" d="M1583.74,528c-3,0-4.49-4.7-4.55-4.91a.38.38,0,0,1,.25-.48.39.39,0,0,1,.48.25s1.5,4.52,4,4.36,3.55-4.43,3.56-4.47a.4.4,0,0,1,.47-.29.39.39,0,0,1,.28.47c0,.2-1.17,4.85-4.25,5.06Z"/><path class="cls-30" d="M1596.7,527.63h0c-3.16,0-4.84-4.12-4.91-4.3a.39.39,0,0,1,.72-.28s1.56,3.79,4.2,3.81h0c2.47,0,2.85-3.67,2.85-3.71a.39.39,0,0,1,.77.08C1600.17,524.75,1599.23,527.63,1596.7,527.63Z"/><path class="cls-30" d="M1605.77,527.32c-2.75,0-3.88-3.93-3.93-4.11a.39.39,0,0,1,.26-.48.4.4,0,0,1,.48.27s1.18,4.08,3.75,3.48a.38.38,0,0,1,.17.75A3.1,3.1,0,0,1,1605.77,527.32Z"/><path class="cls-8" d="M1557.3,522.58s-4.41-8.6-4.52-12.16,4.79-10.16,7.62-9.9c4.75.43-.23,10.16,8.89,20.12,3.92,4.29,9.58,10.12,9.58,10.12Z"/></svg>