<?xml version="1.0" encoding="UTF-8"?>
<svg width="416px" height="292px" viewBox="0 0 416 292" version="1.1" xmlns="http://www.w3.org/2000/svg" xmlns:xlink="http://www.w3.org/1999/xlink">
    <title>1</title>
    <g id="Sachin-illustrations" stroke="none" stroke-width="1" fill="none" fill-rule="evenodd">
        <g id="1">
            <rect id="Rectangle" fill="#FFFFFF" x="0" y="0" width="416" height="292"></rect>
            <g id="Group-2" fill-rule="nonzero">
                <path d="M386.771721,25.3465438 L392.603891,26.1109856 C417.640158,47.9750911 422.146187,101.330992 407.656666,133.818879 C385.399236,183.732119 369.863418,174.122248 353.238524,189.785287 C336.611848,205.446544 354.172527,262.982819 306.853876,285.03759 C259.537008,307.090578 195.593463,269.376333 169.696274,256.591088 C143.798728,243.805843 131.649384,252.116698 116.622811,257.230796 C101.59606,262.344894 55.462559,265.219124 26.3405647,206.182475 C4.67954191,162.270727 30.3377047,128.00627 11.9624468,97.9221877 C-12.8378237,57.3212388 8.79503643,27.2531936 8.79503643,27.2531936 L377.959297,26.8736455 L386.771721,25.3465438" id="path16" fill="#DCEAEA" transform="translate(207.958579, 158.581567) scale(1, -1) translate(-207.958579, -158.581567) "></path>
                <g id="8601" transform="translate(20.950284, 0.000000)">
                    <g id="g10" transform="translate(187.000000, 146.267345) scale(-1, 1) rotate(-180.000000) translate(-187.000000, -146.267345) translate(0.000000, 0.767345)">
                        <g id="g12" transform="translate(-0.000000, 0.000000)">
                            <path d="M226.959545,2.09214349 C226.959545,2.09214349 263.629228,20.1708725 269.936232,29.5993129 C276.241266,39.0277532 266.970896,39.5616244 266.970896,39.5616244 C266.970896,39.5616244 283.336399,55.4753188 281.033092,62.1733332 C278.731754,68.8733177 270.253454,62.7288744 270.253454,62.7288744 C270.253454,62.7288744 280.77695,86.148285 275.815676,88.5024401 C266.574861,92.8876695 253.610135,67.6893451 253.610135,67.6893451 C253.610135,67.6893451 256.396172,78.6366588 250.032028,78.280088 C240.436555,77.7442468 240.83259,52.9832634 240.83259,52.9832634 C240.83259,52.9832634 239.748912,62.4767139 233.964043,59.3936572 C223.586352,53.8599153 226.959545,2.09214349 226.959545,2.09214349" id="path16" fill="#355389"></path>
                            <path d="M231.875501,63.2233455 C236.393452,65.7291909 240.891699,58.4047151 240.891699,58.4047151 C240.891699,58.4047151 240.436555,77.7442468 250.032028,78.280088 C256.396172,78.6366588 253.610135,67.6893451 253.610135,67.6893451 C253.610135,67.6893451 266.574861,92.8876695 275.815676,88.5024401 L226.916198,2.49599436 C226.571391,8.50056733 222.928264,58.2589348 231.875501,63.2233455" id="path18" fill="#466EB6"></path>
                            <path d="M227.90727,1.86953301 C227.90727,1.86953301 257.897558,-1.85574503 265.662601,1.46371213 C273.429615,4.7811993 267.863452,8.88077815 267.863452,8.88077815 C267.863452,8.88077815 284.538296,12.1588652 285.824917,17.2729963 C287.109568,22.3851573 279.419397,21.9793364 279.419397,21.9793364 C279.419397,21.9793364 295.406598,32.3297388 293.268798,35.8146763 C289.286775,42.3038703 270.9608,31.8549678 270.9608,31.8549678 C270.9608,31.8549678 277.147614,37.5502501 273.03358,39.9142552 C266.829032,43.4779929 257.014853,27.8716192 257.014853,27.8716192 C257.014853,27.8716192 257.623683,31.7190375 252.762896,32.1445584 C244.040276,32.91089 227.90727,1.86953301 227.90727,1.86953301" id="path20" fill="#355389"></path>
                            <path d="M252.565864,34.9399944 C257.426651,34.5144735 257.014853,27.8716192 257.014853,27.8716192 C257.014853,27.8716192 267.006361,46.3699591 273.210909,42.8062214 C277.324943,40.4422163 272.458245,32.6803995 272.458245,32.6803995 C272.458245,32.6803995 289.286775,42.3038703 293.268798,35.8146763 L227.816635,2.03501337 C230.04113,5.92183176 244.418578,35.655106 252.565864,34.9399944" id="path22" fill="#466EB6"></path>
                            <path d="M149.510085,3.03774553 C149.510085,3.03774553 112.840796,21.1164746 106.534383,30.5449149 C100.227969,39.9733553 109.49834,40.5072264 109.49834,40.5072264 C109.49834,40.5072264 93.1342152,56.4209208 95.4363407,63.1189353 C97.7388603,69.8189197 106.33006,63.4164059 106.33006,63.4164059 C106.33006,63.4164059 95.6936649,87.093887 100.654938,89.4480421 C109.895951,93.8332716 122.859692,68.6349472 122.859692,68.6349472 C122.859692,68.6349472 120.073655,79.5822608 126.437207,79.22569 C136.033075,78.6898489 135.63704,53.9288654 135.63704,53.9288654 C135.63704,53.9288654 136.720717,63.4223159 142.505586,60.3372893 C152.883278,54.8055173 149.510085,3.03774553 149.510085,3.03774553" id="path24" fill="#355389"></path>
                            <path d="M144.594129,64.1689475 C140.076178,66.6747929 135.57793,59.3503171 135.57793,59.3503171 C135.57793,59.3503171 136.033075,78.6898489 126.437207,79.22569 C120.073655,79.5822608 122.859692,68.6349472 122.859692,68.6349472 C122.859692,68.6349472 109.895951,93.8332716 100.654938,89.4480421 L149.553432,3.4396264 C149.898238,9.44616937 153.541366,59.2045368 144.594129,64.1689475" id="path26" fill="#466EB6"></path>
                            <path d="M148.562359,2.81316505 C148.562359,2.81316505 118.571874,-0.910142992 110.806437,2.40734417 C103.041197,5.72680134 108.606177,9.82638019 108.606177,9.82638019 C108.606177,9.82638019 91.9321211,13.1044673 90.6456972,18.2166283 C89.3592732,23.3307593 97.3193785,22.8284083 97.3193785,22.8284083 C97.3193785,22.8284083 81.0628338,33.2753408 83.2006343,36.7602783 C87.1824603,43.2494724 105.508829,32.7985998 105.508829,32.7985998 C105.508829,32.7985998 99.322606,38.4958521 103.436247,40.8578872 C109.640006,44.4235949 119.455761,28.8172212 119.455761,28.8172212 C119.455761,28.8172212 118.846143,32.6646395 123.707325,33.0901604 C132.429354,33.8545221 148.562359,2.81316505 148.562359,2.81316505" id="path28" fill="#355389"></path>
                            <path d="M123.195435,38.3008217 C118.334253,37.8733308 118.410308,33.1532006 118.410308,33.1532006 C118.410308,33.1532006 109.462677,47.3155611 103.25872,43.7518234 C99.1448829,41.3878183 104.011975,33.6260016 104.011975,33.6260016 C104.011975,33.6260016 87.1824603,43.2494724 83.2006343,36.7602783 L148.654964,2.98061541 C146.428499,6.8674338 131.341735,39.0139632 123.195435,38.3008217" id="path30" fill="#466EB6"></path>
                            <path d="M323.688616,90.8900852 C324.591024,93.0610299 325.509195,95.2359146 327.849938,96.335177 C329.743419,97.2256189 331.723594,96.8907182 333.40625,95.6240054 C338.176402,92.0385977 334.02099,88.0867692 339.44923,81.2882845 C341.135827,79.1744699 343.179052,77.4684462 344.189828,74.9921509 C345.60452,71.5269134 343.919894,69.8622598 341.218581,68.2015462 C328.295231,60.2604591 321.521261,76.5681543 321.76361,80.2973724 C321.94488,83.0731083 323.109341,89.4913822 323.688616,90.8900852" id="path32" fill="#13375B"></path>
                            <path d="M315.90781,18.5771391 C316.546195,15.6969929 317.549089,13.1753874 317.683071,12.8798868 C317.748092,12.7380465 318.34313,12.2297854 318.414061,12.0840051 C318.22688,8.5360274 316.045733,6.3572027 313.980834,4.78710931 C314.37884,6.58572319 315.330506,8.66801769 315.184702,9.06004854 C314.952204,9.68453988 314.034033,12.539076 312.166167,16.1028137 C313.921725,16.3628543 314.510851,17.4542367 315.90781,18.5771391" id="path34" fill="#F7A491"></path>
                            <path d="M323.883678,60.7135601 L334.885962,52.358772 C334.885962,52.358772 329.438019,47.1185607 327.394794,45.1721965 C325.351569,43.2238623 312.745442,34.1559327 312.566142,33.7087418 C312.434131,33.377781 315.434933,22.9525185 317.36979,17.3872565 C316.207299,16.199344 313.645879,15.0350714 312.130701,14.6509206 C308.316155,21.9281163 303.628757,34.3470231 303.628757,36.0333468 C303.628757,38.7795327 323.883678,60.7135601 323.883678,60.7135601" id="path36" fill="#355389"></path>
                            <path d="M354.744849,44.0453541 C354.38625,43.6946933 351.998218,39.0435133 351.087929,36.5534279 C349.757961,37.3906797 348.954069,38.3894719 347.468445,38.9528931 C348.640788,40.6490667 350.926362,44.7328856 351.115514,45.7040977 C351.560807,48.0090026 352.084912,48.3478434 352.084912,48.3478434 C352.084912,48.3478434 359.81252,45.7336477 360.328744,45.0008061 C360.842999,44.2679646 356.191066,45.4539071 354.744849,44.0453541" id="path38" fill="#F7A491"></path>
                            <path d="M351.024879,45.1918966 C350.4259,45.1899265 351.076107,47.9006524 351.21403,48.5251438 C351.369685,49.2264653 351.775572,49.4372557 351.876058,49.4628658 C352.149933,49.5298459 360.740542,46.6240896 362.19267,45.5799874 C362.289216,45.5090672 362.466545,45.2864568 362.494129,45.2352366 C363.28817,43.7537934 356.206828,43.4720828 355.188171,44.1202142 C354.281823,44.6954555 353.722251,45.1997766 351.024879,45.1918966" id="path40" fill="#3C8F7C"></path>
                            <path d="M321.535053,58.2471147 C321.535053,58.2471147 331.136437,62.1260531 331.138408,62.1260531 C331.099001,62.1102931 331.195547,61.7359923 331.203428,61.7064422 C332.103866,58.2018046 336.909484,59.5532276 338.893599,53.4639444 C340.294499,49.1614551 342.345605,33.0704604 342.345605,33.0704604 C342.345605,33.0704604 343.799704,35.8363464 348.317655,40.9268373 C348.668372,41.3208382 353.119332,38.2633916 353.119332,38.2633916 C349.809189,29.4889926 341.681607,22.3595473 340.580196,22.8638683 C333.144197,26.2759157 324.212722,53.1881438 324.224544,53.1861738 C323.379275,54.8330974 321.535053,58.2471147 321.535053,58.2471147" id="path42" fill="#466EB6"></path>
                            <path d="M321.180395,86.5698659 C321.180395,86.5698659 316.676236,93.6993113 315.892048,96.0711964 C315.109829,98.4411115 315.886137,109.737116 315.961009,110.540878 C316.033911,111.342669 318.756897,113.537254 318.327367,114.167655 C317.899807,114.800027 314.142401,115.314198 313.511897,115.190088 C312.881394,115.067947 311.653883,115.180238 311.153421,114.671977 C311.0884,114.604996 312.349407,111.63226 312.321822,111.171279 C312.142523,108.023212 310.35544,98.0018006 310.940626,95.2910747 C311.614476,92.176498 318.301753,82.2181265 318.301753,82.2181265 L321.180395,86.5698659" id="path44" fill="#F7A491"></path>
                            <path d="M337.536047,82.4170969 C337.536047,82.4170969 349.584572,82.1176563 352.228746,81.9009558 C354.87489,81.6842553 364.472334,82.4821071 364.844725,82.5254472 C365.217116,82.5687873 367.676079,86.7314062 368.083936,86.2842153 C368.491793,85.8370243 366.716532,84.2196508 367.266252,83.8000399 C367.815972,83.380429 373.71906,84.320121 373.640247,83.8847501 C373.494443,83.0671983 370.050318,83.1716086 370.052289,82.7776077 C370.056229,82.3836069 373.65798,82.9982482 373.9023,82.3442068 C374.14662,81.6901654 370.438472,82.0782562 370.288727,81.7866956 C370.140953,81.4931649 373.728912,80.9592938 373.362432,80.3505625 C373.163429,80.0196018 370.1843,80.9021637 370.198093,80.4510327 C370.211885,80.0018717 372.387122,78.9754995 372.119158,78.6169587 C371.853164,78.258418 370.412858,79.7181911 369.151851,79.7359211 C367.890844,79.7556212 366.988436,80.4136026 364.974766,79.8600314 C362.961096,79.3084302 356.100431,76.5425442 351.803156,76.7454547 C347.507852,76.9483651 338.016806,77.371916 338.016806,77.371916 L337.536047,82.4170969" id="path46" fill="#F7A491"></path>
                            <path d="M319.850427,69.8366498 C319.68689,71.8243841 319.409074,77.1867356 319.499709,77.8447171 C318.898761,79.9092815 316.705791,82.9686981 316.244735,83.83353 C316.244735,83.83353 319.219923,87.2042073 321.426685,87.1748504 C321.426685,87.1748504 323.77334,84.2117708 325.515106,83.3035988 C325.54072,83.3095089 326.131817,83.0415883 326.391899,83.0415883 C328.072585,83.0534083 333.950059,83.2326787 335.045558,82.905658 L334.424907,73.8259084 C334.109655,73.3058273 333.725442,62.8648047 333.075235,62.0058829 C332.425029,61.146961 322.965508,57.2345326 321.39713,58.2451447 C321.33605,58.2845448 320.183411,65.8217811 319.850427,69.8366498" id="path48" fill="#50BFA5"></path>
                            <path d="M331.985647,82.6948675 C333.069324,83.2129786 340.988053,83.1953214 340.988053,83.1953214 C340.988053,83.1953214 342.085523,77.7343968 341.198877,76.420404 C341.198877,76.420404 334.184527,75.3782717 334.3855,74.8030305 L331.985647,82.6948675" id="path50" fill="#50BFA5"></path>
                            <path d="M330.224178,86.3866555 C330.224178,86.3866555 329.615348,83.2366187 329.737508,81.993546 C329.859668,80.7504733 329.272512,76.7474247 326.64213,76.7336068 C324.011749,76.7198446 326.143639,81.8241257 326.391899,83.0415883 C326.63819,84.2590509 326.697299,88.029639 326.697299,88.029639 L330.224178,86.3866555" id="path52" fill="#F7A491"></path>
                            <path d="M326.644101,86.138435 C326.683507,87.1687472 326.697299,88.029639 326.697299,88.029639 L330.224178,86.3866555 C330.224178,86.3866555 330.100047,85.7424641 329.973947,84.9209723 C328.431184,84.6116817 327.31204,85.1829829 326.644101,86.138435" id="path54" fill="#F47458"></path>
                            <path d="M331.514739,95.0783143 C331.514739,95.0783143 332.872292,94.3257726 333.370784,92.6906691 C333.867305,91.0575356 333.301822,86.8417265 329.790707,85.8232343 C326.279591,84.8067121 324.758502,88.1438993 325.48161,90.7541549 C326.204719,93.3644106 327.777037,96.6700777 331.514739,95.0783143" id="path56" fill="#F7A491"></path>
                            <path d="M325.042228,91.7667371 C325.111189,91.0654156 325.497373,90.5295744 325.9072,90.5689745 C326.315057,90.6103446 326.590902,91.2111959 326.521941,91.9125174 C326.452979,92.6118689 326.066796,93.1477101 325.656969,93.10831 C325.249112,93.0689099 324.973267,92.4680586 325.042228,91.7667371" id="path58" fill="#F7A491"></path>
                            <path d="M317.714596,12.7932066 C317.915569,13.3585978 320.214936,11.6604542 320.754805,11.3196434 C321.363635,10.9354926 321.422745,10.4823916 321.412893,10.3779814 C321.383338,10.1041508 315.931454,2.89590523 314.300027,1.86953301 C314.146341,1.7730028 313.815327,1.75921277 313.716811,1.79270284 C312.778937,2.11775355 314.085261,7.90562604 315.261544,9.08171858 C316.020119,9.84017022 316.804307,10.2558411 317.714596,12.7932066" id="path60" fill="#3C8F7C"></path>
                            <path d="M337.717316,120.501219 L328.045,117.063562 C327.55242,116.888231 327.178058,116.48044 327.042106,115.974149 L324.395962,106.031538 C324.055096,104.756945 322.403965,104.427954 321.600074,105.475997 L315.336417,113.641664 C315.017224,114.057335 314.514792,114.289796 313.992656,114.262216 L303.741065,113.728345 C302.424889,113.659394 301.601294,115.132958 302.344106,116.22237 L308.146708,124.707178 C308.442256,125.138609 308.507277,125.69021 308.318126,126.178771 L304.629681,135.792392 C304.156803,137.025615 305.29762,138.264748 306.560597,137.890447 L316.410243,134.96893 C316.912675,134.81921 317.454514,134.92756 317.8604,135.256551 L325.832328,141.731955 C326.854925,142.563297 328.385866,141.856065 328.423302,140.536162 L328.707029,130.24486 C328.722792,129.720839 328.992726,129.236218 329.432108,128.950567 L338.048331,123.339995 C339.153682,122.618974 338.95862,120.9425 337.717316,120.501219" id="path62" fill="#F7CC7F"></path>
                            <path d="M318.262346,114.069155 C318.622915,113.539224 316.668355,111.860781 316.126516,110.932909 L314.899005,112.605442 C315.503894,112.723642 317.850549,114.673947 318.262346,114.069155" id="path64" fill="#F7A491"></path>
                            <path d="M331.102942,95.2910747 C331.102942,95.2910747 331.739356,90.5886746 333.260446,89.7396027 C334.781535,88.8905309 334.14315,86.8042964 334.14315,86.8042964 C334.14315,86.8042964 335.524347,91.6485369 334.320479,93.2048402 C333.118582,94.7611436 331.102942,95.2910747 331.102942,95.2910747" id="path66" fill="#13375B"></path>
                            <path d="M332.360008,89.0638913 C331.94624,88.45122 331.94821,87.7282284 332.361978,87.4504578 C332.775746,87.1726872 333.447626,87.4425778 333.859424,88.0552491 C334.271221,88.6679204 334.269251,89.390912 333.855483,89.6686826 C333.441715,89.9484232 332.771806,89.6765626 332.360008,89.0638913" id="path68" fill="#F7A491"></path>
                            <path d="M315.308832,113.675154 C315.316713,113.663334 315.328535,113.653484 315.336417,113.641664 L315.78171,113.060513 C315.454636,113.149163 314.832014,113.326464 314.223184,112.910793 C314.223184,112.910793 314.424157,113.340254 315.308832,113.675154" id="path70" fill="#F47257"></path>
                            <path d="M50.980532,61.4129116 C51.0989484,61.3636615 49.4139281,59.1907468 47.7722549,57.6561135 C46.4485918,55.9953999 45.2070912,54.0293356 44.7799252,51.885971 C44.1303097,48.625614 44.6707693,32.5247692 44.1052866,31.3782267 C39.2478491,26.6305165 35.7304283,14.7139607 34.7430994,11.0793029 C34.5505988,10.3701014 34.1606719,9.73181999 33.6202122,9.23537891 L33.6202122,9.23537891 L33.8363567,5.12595004 L36.2498054,2.90378524 C36.2498054,2.90378524 35.7128924,6.25082247 36.7857333,8.73499783 C36.7857333,8.73499783 49.0155287,27.2530378 49.7415928,28.6675009 C51.1285032,32.6981296 56.1794265,53.3516542 56.1794265,53.3516542 L57.3517687,58.0993644 C57.3517687,58.0993644 50.9905806,61.4089716 50.980532,61.4129116" id="path72" fill="#F7A491"></path>
                            <path d="M30.9764327,7.91350606 C30.9764327,7.91350606 32.5038272,5.55935098 32.6344596,4.64132899 C32.764895,3.72527702 33.5784414,1.64495252 34.478485,1.51296224 C34.6828075,1.48341218 38.1824954,1.22534162 38.1570782,1.66268256 C38.137572,1.99758329 36.8706542,2.47432432 36.2825128,2.8821152 C35.2656291,3.58343671 33.6875973,9.30235906 33.6875973,9.30235906 C33.6875973,9.30235906 31.0424386,8.64634764 30.9764327,7.91350606" id="path74" fill="#F47458"></path>
                            <path d="M61.43349,54.2755862 C61.43349,54.2755862 69.3106447,37.4359898 69.3608879,34.4750734 C69.403841,31.9377079 67.9840262,17.6985172 68.3804552,5.84106159 C68.3946415,5.41160066 68.9368744,4.84423943 69.7263829,4.48175865 C70.1706907,4.27884821 72.3155844,3.31945614 72.3155844,3.31945614 L72.6105418,2.55312449 L65.2226183,3.07911562 L65.1174031,5.09639998 C65.1174031,5.09639998 62.1770899,22.8343183 62.4769731,27.8499491 C62.5240638,28.6379508 62.9070947,33.358081 62.9070947,33.358081 L54.023696,50.506968 L59.6107441,57.8472039 L61.43349,54.2755862" id="path76" fill="#F7A491"></path>
                            <path d="M62.1725582,92.0720878 C60.9789365,95.2516746 57.8609002,97.1783388 54.6138077,96.5833975 C53.6174154,98.190921 51.9558419,99.3847436 50.1488586,99.7708644 C46.5833619,100.535226 41.7621784,99.126673 41.8922197,95.3521449 C40.5092499,92.8167494 40.4558541,89.1919416 42.5723752,87.2633074 C41.8360655,83.85323 45.0299592,80.5574129 49.181824,80.6775832 C50.6276471,78.291908 53.3823558,76.7592447 56.121499,77.0862654 C56.7789958,77.1650656 57.7814962,77.3285759 57.9477914,77.2891759 C57.7389372,77.3266059 62.347917,73.7943883 66.2532944,79.22766 C70.2384698,84.771252 67.4384437,91.4810865 62.1725582,92.0720878" id="path78" fill="#355389"></path>
                            <path d="M61.7008629,111.143699 C61.8931664,111.59877 62.1307874,112.034141 62.4101792,112.441932 L62.7177466,112.891093 C62.7555768,112.971863 62.7853287,113.038843 62.8005002,113.082183 C62.9350732,113.480124 62.8322224,114.760627 62.8322224,114.760627 L60.1376085,114.108555 L59.5465116,112.552252 C58.9465482,112.830023 57.9223743,114.914287 57.5482099,114.413906 C57.1062664,113.822905 58.7707954,111.259929 58.90261,110.566488 C59.0342276,109.871076 57.4711703,99.0971229 57.0199663,96.9576983 C56.5687623,94.8182737 53.5190962,88.8452208 53.5190962,88.8452208 L56.3080886,85.3051232 C56.3080886,85.3051232 60.7789487,94.4124528 61.0731179,97.1940988 C61.104052,97.4856595 61.1389267,97.9230004 61.1761658,98.4647516 L61.7008629,111.143699" id="path80" fill="#F7A491"></path>
                            <path d="M43.1256419,77.4034361 L39.8139229,80.2106922 C39.8139229,80.2106922 37.1327072,75.7407525 34.984858,72.0962446 C32.8539536,72.8665163 27.3482798,76.4538941 27.0767693,76.6193744 C26.8042736,76.7848548 26.2009607,80.8410935 25.7345852,80.6263631 C25.2680127,80.4096626 26.0929869,78.4849684 25.5269131,78.3411581 C24.9610363,78.1973478 20.7218862,81.0302139 20.6347979,80.6519731 C20.4720492,79.9427716 23.1654809,78.8159292 23.0297256,78.4987585 C22.8937733,78.1835578 20.3221077,79.9447416 19.9124775,79.5054306 C19.5026503,79.0661197 22.4959651,78.0712675 22.5115307,77.7856169 C22.5270962,77.4979963 19.5773255,78.3313081 19.6549563,77.7127268 C19.6971212,77.377826 22.2949922,77.0389853 22.1314553,76.6804445 C21.9681156,76.3238738 19.9440027,76.2647736 20.0283325,75.8825928 C20.1128593,75.500412 21.7174905,76.1682434 22.6969381,75.7387825 C23.6765827,75.3093216 24.5959355,75.520112 25.9631427,74.3676596 C27.3293647,73.2171771 34.0459991,66.6432729 36.1390733,67.2066941 C37.9663509,67.6991952 43.1256419,77.4034361 43.1256419,77.4034361" id="path82" fill="#F7A491"></path>
                            <path d="M43.4117724,34.093755 C43.4187724,34.073755 43.4237724,34.073755 43.4267724,34.093755 C43.4247724,34.093755 43.4117724,34.093755 43.4117724,34.093755" id="path84" fill="#F47458"></path>
                            <path d="M54.6451359,81.5798451 C54.8571426,82.8741379 56.8609612,86.1147949 57.1771981,86.9087066 C57.1771981,86.9087066 54.8539901,89.861743 52.9679969,89.6371625 C52.9679969,89.6371625 50.4335703,85.4371135 48.992476,85.2952731 C47.5515787,85.1554028 42.4831196,84.9347624 41.5947009,84.3969512 C40.7062822,83.85717 36.936266,78.0692975 36.936266,78.0692975 C36.936266,78.0692975 40.3240395,74.6099701 41.686912,74.6178501 C41.686912,74.6178501 42.4113998,76.0441332 42.7000521,76.3553938 C42.9053598,75.6934724 46.0616204,65.4691503 46.0572857,63.1524253 L46.0815206,63.1327253 C49.0322765,60.7391701 53.3372354,61.2927413 55.6127615,64.3580679 L55.6127615,64.3580679 C55.6127615,64.3580679 55.3453887,67.5455348 55.4971036,70.4847812 C55.7347245,75.0886811 56.6668844,77.5354264 54.6451359,81.5798451" id="path86" fill="#F47458"></path>
                            <path d="M71.0736898,42.0241297 L55.6127615,64.3580679 C54.6591252,63.9719471 53.7578994,63.6350764 52.7386513,63.438076 C50.5218407,63.010585 48.3016807,63.0795352 46.0572857,63.1524253 C46.0570886,63.0677152 46.0527539,62.994825 46.0440845,62.9337549 C45.7859722,61.0918009 43.3433626,58.2412047 42.8401421,52.6542727 C42.2685514,46.312829 42.6141461,35.2965652 42.8078288,34.5735736 C53.0862162,35.8225563 68.1568235,38.9647131 71.0736898,42.0241297" id="path88" fill="#466EB6"></path>
                            <path d="M62.0572943,112.822143 C62.0572943,112.822143 61.085728,112.172041 60.2605567,112.380862 C59.4351883,112.591652 59.0562952,112.897003 59.0562952,112.897003 C59.0562952,112.897003 59.512228,112.065661 60.1856844,111.70318 C61.3473869,111.080659 62.0572943,112.822143 62.0572943,112.822143" id="path90" fill="#F47458"></path>
                            <path d="M42.8866417,117.429983 L51.8762408,119.283757 C52.3341439,119.378317 52.8078096,119.230566 53.1425675,118.891726 L59.7159594,112.209471 C60.5590606,111.352519 61.976117,111.874571 62.1138426,113.094003 L63.1866835,122.593364 C63.2414585,123.077985 63.5206533,123.503506 63.933633,123.730056 L72.0413155,128.178326 C73.081449,128.749627 73.0408604,130.31972 71.9727482,130.833891 L63.6459658,134.8527 C63.2219523,135.055611 62.9210839,135.465371 62.8414829,135.946053 L61.2790167,145.378433 C61.0786348,146.588015 59.6365554,147.035206 58.8387715,146.134915 L52.6196437,139.115789 C52.3028158,138.759219 51.8376225,138.587828 51.3753847,138.658748 L42.3020469,140.037751 C41.138177,140.215052 40.2875886,138.922729 40.8625288,137.851047 L45.345605,129.494289 C45.5739654,129.068768 45.5873636,128.554597 45.3810708,128.117256 L41.3359975,119.537887 C40.8172114,118.438625 41.7334116,117.191612 42.8866417,117.429983" id="path92" fill="#F7CC7F"></path>
                            <path d="M46.3851474,89.0185812 C46.3851474,89.0185812 46.9289566,86.0911549 46.8199977,84.9367324 C46.7112359,83.7803399 47.2345537,80.0590018 49.5827848,80.0471518 C51.9310158,80.0333918 50.0286689,84.779132 49.8075986,85.9099145 C49.5863313,87.0426669 49.5339207,90.5453345 49.5339207,90.5453345 L46.3851474,89.0185812" id="path94" fill="#F7A491"></path>
                            <path d="M49.5823907,88.7880907 C49.5459397,89.7474828 49.5339207,90.5453345 49.5339207,90.5453345 L46.3851474,89.0185812 C46.3851474,89.0185812 46.4962736,88.4196999 46.608188,87.6573082 C47.986429,87.3696876 48.9851858,87.8996188 49.5823907,88.7880907" id="path96" fill="#F47458"></path>
                            <path d="M45.2342817,97.0995386 C45.2342817,97.0995386 44.0207597,96.3982171 43.57724,94.8793438 C43.1337203,93.3604706 43.638517,89.4421321 46.772907,88.4965301 C49.907297,87.550928 51.2652436,90.6536847 50.6195688,93.08073 C49.9740909,95.5058052 48.5698417,98.5790118 45.2342817,97.0995386" id="path98" fill="#F7A491"></path>
                            <path d="M51.011466,94.020422 C50.950189,93.3683506 50.6047913,92.8699395 50.2400845,92.9073696 C49.8753777,92.9447997 49.6296784,93.5042809 49.6911525,94.1563523 C49.7524296,94.8064537 50.0978272,95.3048648 50.462534,95.2674347 C50.8270438,95.2300046 51.0729401,94.6724934 51.011466,94.020422" id="path100" fill="#F7A491"></path>
                            <path d="M44.479845,91.5086666 C44.8479013,90.9393353 44.8465221,90.2675639 44.4766925,90.0075233 C44.1068628,89.7494528 43.5086727,90.0016133 43.1404194,90.5709445 C42.772363,91.1402758 42.7735452,91.8120472 43.1433748,92.0720878 C43.5132045,92.3301583 44.1115916,92.0779978 44.479845,91.5086666" id="path102" fill="#F7A491"></path>
                            <path d="M62.5136211,116.3977 C61.9057765,116.515901 59.3333226,114.496646 59.3559813,114.195236 C59.3798223,113.882005 61.8900139,115.174328 61.9611425,114.967477 C62.0169027,114.805937 59.1508707,114.055365 59.3008123,113.767745 C59.4032691,113.570744 61.9743437,114.112495 62.0427139,113.986415 C62.1497025,113.789415 59.8974261,113.706674 60.042836,113.488004 C60.2112986,113.235843 62.3563894,113.340254 62.3563894,113.340254 C62.3563894,113.340254 62.787496,114.033695 62.8322224,114.293736 C62.8511375,114.404056 62.8523197,114.559686 62.842074,114.738957 C62.8336016,114.880797 62.896849,115.004907 62.8769487,115.164478 C62.7963625,115.814579 62.8495612,116.33269 62.5136211,116.3977" id="path104" fill="#F7A491"></path>
                            <path d="M59.0850619,114.853217 L58.1272879,113.669244 L57.4956023,114.140075 C57.4956023,114.140075 57.4429947,114.238576 57.5166847,114.404056 C57.5903748,114.567566 59.0639795,115.290558 59.0850619,114.853217" id="path106" fill="#F7A491"></path>
                            <path d="M65.1977923,1.67253258 L74.5306217,1.67253258 C74.8756252,1.70405265 74.959758,1.98182325 74.8401594,2.15321362 C74.593672,2.50781439 73.5050685,2.76785495 72.2813008,3.33127617 C70.1346338,3.10669568 65.4604363,4.57434885 65.1217378,5.06487991 C64.9262818,4.07987778 65.0058828,1.71587268 65.1977923,1.67253258" id="path108" fill="#F47458"></path>
                            <path d="M58.1958551,113.751985 C58.1958551,113.751985 59.4625758,112.977773 59.9868788,112.075511 C60.5111818,111.171279 60.2692261,110.420707 60.2692261,110.420707 L58.0991123,113.090063 L58.1958551,113.751985" id="path110" fill="#F7A491"></path>
                            <path d="M243.691528,219.314663 C243.466912,218.2548 243.261998,217.159478 242.710307,216.272976 C241.762582,215.128403 240.868055,213.948371 240.018846,212.736818 C240.604032,212.778188 241.191188,212.805768 241.786226,212.805768 C247.630204,212.805768 253.068296,210.747114 257.099577,207.010016 C260.703298,203.670859 262.685443,199.39004 262.685443,194.95753 C262.685443,190.52502 260.703298,186.242231 257.099577,182.903074 C253.068296,179.165976 247.630204,177.109291 241.786226,177.109291 C235.95604,177.109291 230.52977,179.156126 226.5044,182.873524 C226.210822,182.006722 225.917244,181.14386 225.625636,180.277058 C223.655313,179.278266 222.270176,176.928051 222.270176,174.183835 C222.270176,170.535387 224.719287,167.576441 227.739793,167.576441 C230.116002,167.576441 232.133613,169.410515 232.888247,171.96561 C235.668373,171.039708 238.661293,170.529477 241.786226,170.529477 C256.337062,170.529477 268.135357,181.464971 268.135357,194.95753 C268.135357,207.853178 257.353749,218.408461 243.691528,219.314663" id="path112" fill="#E0973F"></path>
                            <path d="M125.526524,219.314663 C125.752126,218.2548 125.956842,217.159478 126.507548,216.272976 C127.455273,215.128403 128.348815,213.948371 129.199994,212.736818 C128.614808,212.778188 128.027652,212.805768 127.433008,212.805768 C121.587848,212.805768 116.148968,210.747114 112.118672,207.010016 C108.515937,203.670859 106.531821,199.39004 106.531821,194.95753 C106.531821,190.52502 108.515937,186.242231 112.118672,182.903074 C116.148968,179.165976 121.587848,177.109291 127.433008,177.109291 C133.2628,177.109291 138.6871,179.156126 142.71444,182.873524 C143.008018,182.006722 143.299626,181.14386 143.591234,180.277058 C145.563527,179.278266 146.948665,176.928051 146.948665,174.183835 C146.948665,170.535387 144.499553,167.576441 141.477077,167.576441 C139.100868,167.576441 137.085227,169.410515 136.330593,171.96561 C133.550468,171.039708 130.557547,170.529477 127.433008,170.529477 C112.880793,170.529477 101.083878,181.464971 101.083878,194.95753 C101.083878,207.853178 111.865486,218.408461 125.526524,219.314663" id="path114" fill="#E0973F"></path>
                            <path d="M247.48243,222.096309 L247.48243,215.351014 C247.48243,184.873078 222.764727,160.159375 192.281858,160.159375 C178.241336,160.346525 168.608426,158.894632 155.27722,164.794795 C136.068541,173.216563 122.241601,192.514725 122.241601,215.351014 L122.241601,222.096309 L247.48243,222.096309" id="path116" fill="#F7CC7F"></path>
                            <path d="M155.27722,164.794795 C155.291013,164.788885 155.304805,164.782975 155.318597,164.777065 L175.161721,222.096309 L154.504854,222.096309 L138.600406,176.145959 C143.404053,171.388399 149.058881,167.521281 155.27722,164.794795" id="path118" fill="#FAE0B2"></path>
                            <path d="M168.186777,160.927676 L189.125401,222.096309 L178.747709,222.096309 L158.666176,163.419732 C161.996022,162.194389 165.120954,161.418208 168.186777,160.927676" id="path120" fill="#FAE0B2"></path>
                            <path d="M136.588706,178.244014 L152.246863,222.096309 L147.313174,222.096309 L133.146551,182.420423 C134.226288,180.9705 135.374987,179.577707 136.588706,178.244014" id="path122" fill="#FAE0B2"></path>
                            <path d="M242.014783,225.918117 L128.023711,225.918117 C123.863571,225.918117 120.472448,223.603362 120.233251,220.687755 L249.805441,220.687755 C249.565061,223.603362 246.174135,225.918117 242.014783,225.918117" id="path124" fill="#F7CC7F"></path>
                            <polyline id="path126" fill="#F7CC7F" points="163.698381 161.774778 170.147249 128.670827 198.350453 128.670827 206.340114 161.774778 163.698381 161.774778"></polyline>
                            <polyline id="path128" fill="#B75742" points="206.342084 161.772808 204.539238 154.302552 165.15642 154.302552 163.698381 161.772808 206.342084 161.772808"></polyline>
                            <polyline id="path130" fill="#F7CC7F" points="206.342084 87.7183784 163.698381 87.7183784 166.896216 104.150184 170.145278 120.82233 198.352424 120.82233 202.379764 104.150184 206.342084 87.7183784"></polyline>
                            <polyline id="path132" fill="#B75742" points="206.342084 87.7183784 163.698381 87.7183784 166.896216 104.150184 202.379764 104.150184 206.342084 87.7183784"></polyline>
                            <path d="M203.297935,128.670827 L165.199767,128.670827 C163.519082,128.670827 162.155618,127.307584 162.155618,125.62717 L162.155618,123.865986 C162.155618,122.185573 163.519082,120.82233 165.199767,120.82233 L203.297935,120.82233 C204.97862,120.82233 206.340114,122.185573 206.340114,123.865986 L206.340114,125.62717 C206.340114,127.307584 204.97862,128.670827 203.297935,128.670827" id="path134" fill="#FAE0B2"></path>
                            <path d="M209.484749,89.9582732 L159.11541,89.9582732 L159.11541,99.0045327 C159.11541,99.9777148 159.905509,100.767687 160.880819,100.767687 L207.72131,100.767687 C208.69465,100.767687 209.484749,99.9777148 209.484749,99.0045327 L209.484749,89.9582732" id="path136" fill="#F7CC7F"></path>
                            <path d="M226.130039,83.4966593 L226.130039,80.2067522 L142.47012,80.2067522 L142.47012,83.4966593 C142.47012,87.2849774 144.78328,90.3621241 147.632367,90.3621241 L220.967792,90.3621241 C223.816879,90.3621241 226.130039,87.2849774 226.130039,83.4966593" id="path138" fill="#F7CC7F"></path>
                            <polyline id="path140" fill="#FAE0B2" points="162.16744 90.3621241 159.519326 80.2067522 156.027913 80.2067522 158.676028 90.3621241 162.16744 90.3621241"></polyline>
                            <polyline id="path142" fill="#FAE0B2" points="157.16676 90.3621241 154.520616 80.2067522 151.025263 80.2067522 153.675348 90.3621241 157.16676 90.3621241"></polyline>
                            <polyline id="path144" fill="#FAE0B2" points="166.610519 90.3621241 163.964375 80.2067522 160.469022 80.2067522 163.119106 90.3621241 166.610519 90.3621241"></polyline>
                            <path d="M257.280847,5.08063994 L257.280847,1.79270284 L117.090191,1.79270284 L117.090191,5.08063994 C117.090191,8.87092813 120.966211,11.9461048 125.742668,11.9461048 L248.627188,11.9461048 C253.403251,11.9461048 257.280847,8.87092813 257.280847,5.08063994" id="path146" fill="#F7CC7F"></path>
                            <polyline id="path148" fill="#FAE0B2" points="150.095271 11.9461048 145.660073 1.79270284 139.810184 1.79270284 144.245381 11.9461048 150.095271 11.9461048"></polyline>
                            <polyline id="path150" fill="#FAE0B2" points="141.719427 11.9461048 137.28423 1.79270284 131.426459 1.79270284 135.869538 11.9461048 141.719427 11.9461048"></polyline>
                            <polyline id="path152" fill="#FAE0B2" points="157.543092 11.9461048 153.107895 1.79270284 147.250124 1.79270284 151.693203 11.9461048 157.543092 11.9461048"></polyline>
                            <path d="M220.731353,168.029542 L220.731353,165.547336 C220.731353,161.248787 217.249792,157.76976 212.958429,157.76976 L156.79831,157.76976 C152.501035,157.76976 149.019474,161.248787 149.019474,165.547336 L149.019474,168.029542 L220.731353,168.029542" id="path154" fill="#F7CC7F"></path>
                            <polyline id="path156" fill="#3C8F7C" points="237.827847 11.9461048 132.332808 11.9461048 133.617459 80.2067522 236.413155 80.2067522 237.827847 11.9461048"></polyline>
                            <polyline id="path158" fill="#50BFA5" points="212.741693 11.9461048 157.418962 11.9461048 158.094782 80.2067522 211.998881 80.2067522 212.741693 11.9461048"></polyline>
                            <path d="M351.811038,1.79270284 L0.848419393,1.79270284 C0.409628441,1.79270284 0.0537880914,1.43810208 0.0537880914,0.99879113 L0.0537880914,0.99879113 C0.0537880914,0.559480181 0.409628441,0.204879416 0.848419393,0.204879416 L351.811038,0.204879416 C352.248449,0.204879416 352.605078,0.559480181 352.605078,0.99879113 L352.605078,0.99879113 C352.605078,1.43810208 352.248449,1.79270284 351.811038,1.79270284" id="path160" fill="#184655"></path>
                            <polyline id="path162" fill="#B75742" points="202.04875 13.9988492 193.684728 27.6568887 181.389912 17.3911965 194.039386 94.4045728 214.700194 91.0122255 202.04875 13.9988492"></polyline>
                            <polyline id="path164" fill="#B75742" points="240.265136 17.4305966 227.946677 27.6667387 219.61418 13.9909692 206.785407 90.9728254 227.436363 94.4124528 240.265136 17.4305966"></polyline>
                            <path d="M257.280847,76.6784745 C257.280847,72.2282349 253.355963,68.4537068 252.05358,64.4388381 C250.701938,60.2781891 251.610257,54.9276576 249.090214,51.4643901 C246.542586,47.9676325 241.155723,47.1894809 237.658399,44.6442354 C234.194571,42.1226299 231.802599,37.2271694 227.641276,35.8757464 C223.627728,34.5716036 218.831962,37.085329 214.382972,37.085329 C209.932013,37.085329 205.138216,34.5716036 201.122698,35.8757464 C196.961376,37.2271694 194.571374,42.1226299 191.107546,44.6442354 C187.608252,47.1894809 182.221389,47.9676325 179.675731,51.4643901 C177.155688,54.9276576 178.064007,60.2781891 176.712365,64.4388381 C175.408011,68.4537068 171.485098,72.2282349 171.485098,76.6784745 C171.485098,81.1267441 175.408011,84.9012723 176.712365,88.916141 C178.064007,93.0767899 177.155688,98.4273215 179.675731,101.890589 C182.221389,105.387347 187.608252,106.165498 191.107546,108.710744 C194.571374,111.232349 196.961376,116.12978 201.122698,117.479233 C205.138216,118.783375 209.932013,116.26965 214.382972,116.26965 C218.831962,116.26965 223.627728,118.783375 227.641276,117.479233 C231.802599,116.12978 234.194571,111.232349 237.658399,108.710744 C241.155723,106.165498 246.544556,105.387347 249.090214,101.890589 C251.610257,98.4273215 250.701938,93.0767899 252.05358,88.916141 C253.355963,84.9012723 257.280847,81.1267441 257.280847,76.6784745" id="path166" fill="#F47458"></path>
                            <path d="M225.071975,38.6120823 C223.724274,38.6120823 222.153927,38.9568331 220.492944,39.3232539 C218.532473,39.7527148 216.50304,40.1979358 214.382972,40.1979358 C212.260934,40.1979358 210.233472,39.7527148 208.27103,39.3232539 C206.610048,38.9568331 205.041671,38.6140523 203.691999,38.6140523 C203.071348,38.6140523 202.547242,38.6849725 202.084216,38.8366628 C200.368064,39.392204 198.831212,41.1395978 197.201755,42.9894318 C195.911193,44.455115 194.577285,45.9680782 192.939946,47.1599308 C191.278964,48.3695134 189.409127,49.1811552 187.602341,49.9671869 C185.356173,50.944309 183.232164,51.868241 182.191834,53.2964941 C181.169236,54.7011071 180.944619,56.994192 180.70621,59.4232073 C180.513118,61.3912415 180.314116,63.4282259 179.673761,65.4002002 C179.05902,67.2933743 178.042333,69.007278 177.059142,70.6660216 C175.794195,72.7995362 174.598209,74.8168205 174.598209,76.6784745 C174.598209,78.5381586 175.792224,80.5554429 177.059142,82.6889575 C178.042333,84.3477011 179.05902,86.0616048 179.673761,87.9547789 C180.314116,89.9267531 180.513118,91.9637375 180.70621,93.9337418 C180.944619,96.360787 181.171206,98.653872 182.193804,100.058485 C183.232164,101.488708 185.356173,102.41067 187.602341,103.387792 C189.409127,104.173824 191.278964,104.985466 192.939946,106.195048 C194.577285,107.386901 195.911193,108.901834 197.201755,110.365547 C198.831212,112.215381 200.370035,113.962775 202.084216,114.520286 C202.547242,114.670007 203.071348,114.740927 203.691999,114.740927 C205.041671,114.740927 206.610048,114.398146 208.27103,114.031725 C210.233472,113.602264 212.260934,113.157043 214.382972,113.157043 C216.50304,113.157043 218.532473,113.602264 220.494915,114.031725 C222.153927,114.398146 223.724274,114.740927 225.073945,114.740927 C225.692627,114.740927 226.218703,114.670007 226.679759,114.520286 C228.39591,113.962775 229.934733,112.215381 231.56419,110.365547 C232.854751,108.901834 234.18866,107.386901 235.825999,106.195048 C237.486981,104.985466 239.354847,104.173824 241.161633,103.387792 C243.409772,102.41067 245.53181,101.486738 246.572141,100.058485 C247.594738,98.653872 247.819355,96.360787 248.057764,93.9317718 C248.250856,91.9637375 248.451829,89.9267531 249.092184,87.9547789 C249.706925,86.0616048 250.723611,84.3457311 251.706803,82.6889575 C252.97175,80.5554429 254.167736,78.5381586 254.167736,76.6784745 C254.167736,74.8168205 252.97175,72.7995362 251.706803,70.6660216 C250.723611,69.007278 249.706925,67.2933743 249.092184,65.4002002 C248.451829,63.4282259 248.250856,61.3912415 248.057764,59.4232073 C247.819355,56.994192 247.594738,54.7011071 246.572141,53.2964941 C245.53181,51.866271 243.409772,50.944309 241.161633,49.9671869 C239.354847,49.1811552 237.486981,48.3695134 235.825999,47.1599308 C234.18669,45.9680782 232.852781,44.455115 231.56419,42.9894318 C229.934733,41.1395978 228.39591,39.392204 226.679759,38.8366628 C226.218703,38.6849725 225.692627,38.6120823 225.071975,38.6120823" id="path168" fill="#F7CC7F"></path>
                            <path d="M245.630326,76.6784745 C245.630326,59.4232073 231.641032,45.4342071 214.382972,45.4342071 C197.124912,45.4342071 183.133648,59.4232073 183.133648,76.6784745 C183.133648,93.9337418 197.124912,107.920772 214.382972,107.920772 C231.641032,107.920772 245.630326,93.9337418 245.630326,76.6784745" id="path170" fill="#F47458"></path>
                            <path d="M214.382972,46.9905104 C198.011558,46.9905104 184.690203,60.3077392 184.690203,76.6784745 C184.690203,93.0472399 198.011558,106.364469 214.382972,106.364469 C230.754387,106.364469 244.073771,93.0472399 244.073771,76.6784745 C244.073771,60.3077392 230.754387,46.9905104 214.382972,46.9905104" id="path172" fill="#FFFFFF"></path>
                            <path d="M241.301526,76.6784745 C241.301526,61.8128224 229.24906,49.7623064 214.382972,49.7623064 C199.514914,49.7623064 187.464418,61.8128224 187.464418,76.6784745 C187.464418,91.5421566 199.514914,103.592673 214.382972,103.592673 C229.24906,103.592673 241.301526,91.5421566 241.301526,76.6784745" id="path174" fill="#F7CC7F"></path>
                            <path d="M207.518367,75.1418712 L208.251327,80.7288033 L204.241719,80.7288033 L203.51073,75.1418712 L207.518367,75.1418712 Z M199.849869,65.31549 L200.850793,72.8684863 L197.692365,72.8684863 L197.692365,75.1418712 L201.19757,75.1418712 L201.93053,80.7288033 L198.616447,80.7288033 L198.616447,83.0021882 L202.277307,83.0021882 L203.280202,90.3621241 L205.514548,90.3621241 L204.55106,83.0021882 L208.558697,83.0021882 L209.561592,90.3621241 L211.835345,90.3621241 L210.871857,83.0021882 L214.032255,83.0021882 L214.032255,80.7288033 L210.52508,80.7288033 L209.831526,75.1418712 L213.145609,75.1418712 L213.145609,72.8684863 L209.484749,72.8684863 L208.481855,65.31549 L206.168695,65.31549 L207.17159,72.8684863 L203.163953,72.8684863 L202.161058,65.31549 L199.849869,65.31549" id="path176" fill="#FFFFFF"></path>
                            <polyline id="path178" fill="#FFFFFF" points="224.514374 87.2022373 224.437531 87.2022373 220.083117 84.8520222 219.426999 87.4327278 224.900557 90.3621241 227.791021 90.3621241 227.791021 65.31549 224.514374 65.31549 224.514374 87.2022373"></polyline>
                            <path d="M245.652,266.287444 C245.356451,265.079831 244.826434,263.170897 244.826434,263.170897 C244.869782,262.646876 245.023467,260.462141 245.208677,257.784906 L241.273942,259.358939 C241.273942,259.358939 241.32123,263.720528 241.143901,263.988449 C240.996126,264.213029 240.747866,263.931319 239.540058,265.659013 C239.193281,266.155454 239.12826,267.045896 239.12826,267.045896 C239.12826,267.045896 239.055358,268.141218 239.301648,268.243658 C239.547939,268.346098 239.829695,268.182588 239.91836,267.993468 C240.008994,267.804347 239.985351,267.363066 240.074015,267.173946 C240.16268,266.984825 240.732103,266.756305 240.972482,266.768125 C241.210892,266.779945 240.942928,270.008782 240.942928,270.008782 C240.942928,270.008782 240.808946,270.922864 240.739984,271.224275 C240.682845,271.478405 240.450347,272.227007 240.450347,272.227007 C240.450347,272.227007 240.176472,273.314449 240.515368,273.397189 C240.71437,273.446439 241.220743,272.563878 241.56752,271.626155 C241.941881,270.617513 242.154676,269.547801 242.261074,269.561591 C242.513275,269.595081 242.379293,271.366115 242.379293,271.366115 C242.379293,271.366115 242.129062,272.175787 242.134973,272.559937 C241.898534,273.028799 241.742879,273.89757 242.158617,273.970589 C242.23546,273.984251 242.783209,272.879078 242.783209,272.879078 C242.783209,272.879078 242.999945,272.100927 243.126046,271.736476 C243.346722,271.096224 243.380217,270.083642 243.496466,269.636451 C243.593012,269.26412 243.679706,269.417781 243.719113,269.402021 C243.748668,269.390201 243.695469,269.902402 243.634389,270.605693 C243.602864,270.962264 243.644241,271.370055 243.545724,271.773906 C243.453119,272.148207 243.399921,272.684048 243.376277,273.007128 C243.309286,273.92318 243.88659,273.82862 244.085593,272.991368 C244.160465,272.674198 244.241248,272.325507 244.320061,271.972876 C244.631372,270.599783 244.621521,269.27791 244.769295,269.26609 C244.962387,269.2523 244.834316,271.659646 244.834316,271.659646 C244.834316,271.659646 245.129864,272.991368 245.423442,271.756176 C245.762338,270.320043 245.726872,269.14986 245.722931,269.09864 C245.691406,268.747979 245.945578,267.495057 245.652,266.287444" id="path180" fill="#F8A492"></path>
                            <path d="M245.395858,261.011773 C245.395858,261.011773 240.960661,262.073605 240.919284,261.717034 C239.987321,253.917787 239.569612,251.098711 239.410016,251.015971 C238.874088,250.74017 231.75137,257.253004 230.480512,257.694285 C229.873653,257.905076 229.211624,257.869616 228.57718,257.851886 C227.067912,257.806576 226.768423,257.800666 226.768423,257.800666 C226.725076,257.798696 226.713254,257.798696 226.713254,257.798696 L226.721136,256.376353 C228.423495,254.845659 232.320794,231.652799 232.649838,231.666589 C233.016318,231.684319 240.718311,229.745835 240.582358,230.395936 C240.560685,230.500347 235.361002,234.755556 233.88523,240.894089 C233.390679,242.956684 233.146359,245.174908 232.878395,247.117333 C234.588636,246.260381 241.273942,242.970474 242.332005,243.405845 C245.628356,244.757267 245.395858,261.011773 245.395858,261.011773" id="path182" fill="#3C8F7C"></path>
                            <path d="M258.658103,219.830804 C258.658103,219.830804 265.824168,214.218262 266.064547,213.223409 C266.409354,211.791216 272.970529,213.67454 271.38836,213.966101 C271.02385,214.033081 269.859389,214.328582 269.762843,214.379802 C269.250559,214.653632 262.874594,222.336649 262.874594,222.336649 L258.658103,219.830804" id="path184" fill="#F7A491"></path>
                            <path d="M274.466005,213.966101 L269.888944,214.338432 C269.888944,214.338432 268.58262,213.256899 266.068488,213.205679 C266.068488,213.205679 265.666542,212.057167 265.857663,210.715594 C265.891159,210.485103 265.928595,209.785752 266.163063,209.801512 C267.008332,209.858642 269.260411,210.418123 271.825772,210.932294 C271.825772,210.932294 275.275807,211.661196 277.267804,212.853049 C279.259801,214.044901 274.466005,213.966101 274.466005,213.966101" id="path186" fill="#B75742"></path>
                            <path d="M226.551688,233.908454 C226.551688,233.908454 231.798658,233.027862 237.60126,234.385195 C244.318091,235.955288 251.744239,237.407182 253.919475,236.142439 C255.671093,235.125917 266.606386,218.603491 266.606386,218.603491 L262.383983,215.520434 L250.341369,229.003143 C250.341369,229.003143 234.97876,223.335441 231.528724,223.963873 C223.669105,225.394096 223.558767,231.668559 226.551688,233.908454" id="path188" fill="#13375B"></path>
                            <polyline id="path190" fill="#13375B" points="232.287298 237.243671 237.538209 231.004668 227.798902 228.035871 226.551688 233.908454 232.287298 237.243671"></polyline>
                            <path d="M242.958568,208.74559 C242.958568,208.74559 242.639376,200.079541 242.440373,198.611888 C242.243341,197.152115 246.118966,192.751125 245.624415,194.281818 C245.510137,194.634449 245.216558,195.798722 245.216558,195.907072 C245.214588,196.488223 246.652924,206.373705 246.652924,206.373705 L242.958568,208.74559" id="path192" fill="#F7A491"></path>
                            <path d="M248.101111,191.123902 L245.240202,195.777052 C245.240202,195.777052 243.665914,196.413363 242.426581,198.600068 C242.426581,198.600068 241.226654,198.408977 240.137065,197.603246 C239.947914,197.463375 238.667204,196.525653 238.755869,196.310923 C239.084913,195.515041 240.830619,193.810987 242.737892,191.947363 C242.737892,191.947363 245.443146,189.766569 247.437113,188.580626 C249.43305,187.394684 248.101111,191.123902 248.101111,191.123902" id="path194" fill="#B75742"></path>
                            <path d="M251.464453,225.829467 C249.628112,228.276212 234.819163,230.600817 234.819163,230.600817 L230.689366,238.535994 L221.558889,232.905722 C221.558889,232.905722 222.471149,225.640346 223.156821,223.699892 C224.069081,221.113276 230.206637,220.981286 233.954192,221.020686 C237.402257,221.056146 243.70138,220.352855 243.70138,220.352855 L241.571461,201.560984 C241.571461,201.560984 245.758397,200.607502 246.93665,200.761162 C247.068662,200.778893 253.746087,222.78778 251.464453,225.829467" id="path196" fill="#355389"></path>
                            <path d="M226.764483,257.784906 L221.612088,257.497285 C221.612088,257.497285 221.493868,257.461825 221.458403,257.453945 C221.038724,257.377115 221.420966,242.365682 221.795328,236.75905 C222.169689,231.152418 222.928264,228.798263 222.928264,228.798263 C222.928264,228.798263 229.915029,230.037396 232.058741,230.870707 C232.949327,231.215458 235.10289,233.908454 235.10289,233.908454 C235.10289,233.908454 232.902039,236.86543 231.794718,241.670271 C230.939597,245.375849 229.885474,251.943843 229.282556,253.314966 C227.897418,256.465003 226.764483,257.784906 226.764483,257.784906" id="path198" fill="#9BC1F9"></path>
                            <path d="M221.759862,262.046025 L221.612088,257.497285 C221.612088,257.497285 224.947845,251.752753 226.660056,252.552574 C228.096421,253.224346 226.821622,257.595785 226.821622,257.595785 C226.821622,257.595785 226.573361,258.596547 226.228555,259.749 C225.986205,260.552762 225.787202,261.423503 225.800995,262.063755 C225.83646,263.618088 221.759862,262.046025 221.759862,262.046025" id="path200" fill="#F7A491"></path>
                            <path d="M225.800995,262.063755 C225.83646,263.618088 221.759862,262.046025 221.759862,262.046025 L221.744099,261.600804 C221.882022,261.393953 222.033737,261.218623 222.201214,261.082693 C223.296714,260.194221 224.882824,259.79234 226.171415,259.94009 C225.95665,260.688692 225.787202,261.474724 225.800995,262.063755" id="path202" fill="#F47458"></path>
                            <path d="M225.743855,272.418097 C225.743855,272.418097 227.442274,269.857092 227.570345,267.701907 C227.696445,265.544752 227.239331,264.075129 227.239331,264.075129 L221.787447,270.591903 L225.743855,272.418097" id="path204" fill="#184655"></path>
                            <path d="M228.133857,268.143188 C228.2107,267.386706 227.917122,266.738575 227.47971,266.695235 C227.040328,266.649925 226.622619,267.225166 226.545777,267.979678 C226.468934,268.734189 226.762512,269.384291 227.201894,269.427631 C227.639306,269.472941 228.057015,268.8977 228.133857,268.143188" id="path206" fill="#F48C7F"></path>
                            <path d="M220.022037,269.547801 C219.897907,269.575381 219.909729,263.298947 221.728337,261.823414 C223.546945,260.345911 226.713254,260.217861 227.637336,261.705214 C228.659933,263.350168 227.688564,269.961502 224.983311,271.366115 C222.276087,272.770728 220.022037,269.547801 220.022037,269.547801" id="path208" fill="#F7A491"></path>
                            <path d="M219.560981,273.438559 C218.171904,272.221097 217.500024,271.332625 216.560179,269.16759 C215.40557,266.506114 217.697056,263.750078 219.620091,262.654756 C221.541156,261.559434 221.700752,260.233621 221.700752,260.233621 L221.779565,261.051173 C221.818972,261.348643 221.80715,261.590954 221.755921,261.801744 C221.694841,262.047995 221.582533,262.252875 221.482046,262.463666 C221.31851,262.814326 220.792433,264.012089 220.58752,264.32926 C220.047651,265.162572 219.941254,265.341842 220.207247,266.135754 C220.414131,266.744485 220.175722,268.089998 220.492944,269.09667 L223.079978,269.654181 C223.079978,269.654181 224.699584,270.042272 225.517268,270.985904 C227.863923,273.69466 223.223812,276.712706 219.560981,273.438559" id="path210" fill="#184655"></path>
                            <path d="M220.823959,265.448222 C221.141181,264.760691 221.07616,264.051489 220.676184,263.866309 C220.274238,263.681128 219.692993,264.088919 219.373801,264.778421 C219.054608,265.465952 219.121599,266.175154 219.521575,266.360334 C219.921551,266.545515 220.504766,266.137724 220.823959,265.448222" id="path212" fill="#F7A491"></path>
                            <path d="M203.193508,282.75865 C203.487086,281.551037 204.019073,279.640133 204.019073,279.640133 C203.975726,279.116112 203.822041,276.931377 203.63683,274.256111 L207.571565,275.830145 C207.571565,275.830145 207.524278,280.191734 207.699636,280.457685 C207.849381,280.684235 208.097642,280.402524 209.303479,282.128248 C209.652227,282.626659 209.717247,283.517101 209.717247,283.517101 C209.717247,283.517101 209.790149,284.612424 209.543859,284.712894 C209.297568,284.815334 209.015812,284.651824 208.925177,284.462703 C208.836513,284.273583 208.860157,283.832302 208.771492,283.643181 C208.680857,283.454061 208.113404,283.225541 207.873025,283.237361 C207.632645,283.249181 207.90258,286.478018 207.90258,286.478018 C207.90258,286.478018 208.036562,287.39407 208.103553,287.69351 C208.162662,287.949611 208.395161,288.698212 208.395161,288.698212 C208.395161,288.698212 208.667065,289.785655 208.33014,289.868395 C208.131137,289.917645 207.624764,289.033113 207.277987,288.097361 C206.903626,287.086749 206.690831,286.017037 206.584434,286.032797 C206.332232,286.066287 206.466214,287.83535 206.466214,287.83535 C206.466214,287.83535 206.716445,288.646992 206.710534,289.029173 C206.946973,289.498034 207.102629,290.368776 206.68689,290.439824 C206.610048,290.453486 206.060328,289.348314 206.060328,289.348314 C206.060328,289.348314 205.845562,288.570162 205.719462,288.207681 C205.498786,287.56546 205.46529,286.552878 205.349041,286.105687 C205.252495,285.735326 205.165801,285.887016 205.126394,285.873226 C205.094869,285.859436 205.148068,286.373607 205.211118,287.076899 C205.240673,287.4315 205.201267,287.84126 205.299783,288.245111 C205.392388,288.619412 205.443617,289.155253 205.46726,289.478334 C205.536222,290.394386 204.958917,290.299826 204.759914,289.462574 C204.683072,289.143433 204.604259,288.794743 204.523476,288.442112 C204.214135,287.070989 204.223987,285.747146 204.076212,285.737296 C203.883121,285.721536 204.009221,288.130851 204.009221,288.130851 C204.009221,288.130851 203.715643,289.462574 203.422065,288.225411 C203.081199,286.791248 203.116665,285.621066 203.122576,285.569846 C203.154101,285.219185 202.899929,283.966262 203.193508,282.75865" id="path214" fill="#F8A492"></path>
                            <path d="M221.612088,257.497285 C221.612088,257.497285 216.50501,257.735655 215.186864,258.330597 C214.388883,258.693078 207.825737,263.980569 207.825737,263.980569 L207.898639,278.13702 L203.284142,278.48768 C203.284142,278.48768 200.8902,262.839937 201.719706,261.128003 C202.574826,259.358939 212.182121,252.075833 214.103186,248.915946 C215.210508,247.095663 217.517756,222.338619 217.868474,222.116009 C220.353051,220.821716 228.02943,219.529393 227.84816,220.313455 C222.851421,241.997292 221.612088,257.497285 221.612088,257.497285" id="path216" fill="#3C8F7C"></path>
                            <path d="M129.96448,193.856298 C130.258058,192.648685 130.788075,190.739751 130.788075,190.739751 C130.746698,190.21376 130.591042,188.030995 130.407802,185.353759 L134.342537,186.927793 C134.342537,186.927793 134.29525,191.289382 134.470609,191.557303 C134.620353,191.781883 134.868614,191.500172 136.074451,193.225896 C136.423199,193.724307 136.488219,194.614749 136.488219,194.614749 C136.488219,194.614749 136.559151,195.710072 136.314831,195.812512 C136.068541,195.912982 135.786784,195.749472 135.696149,195.560351 C135.607485,195.371231 135.631129,194.92995 135.540494,194.740829 C135.451829,194.551709 134.882406,194.323189 134.643997,194.336979 C134.403618,194.346829 134.673552,197.575666 134.673552,197.575666 C134.673552,197.575666 134.807534,198.491718 134.874525,198.791158 C134.933634,199.047259 135.166133,199.79586 135.166133,199.79586 C135.166133,199.79586 135.438037,200.883303 135.101112,200.966043 C134.902109,201.015293 134.395736,200.130761 134.046989,199.195009 C133.672628,198.186367 133.461803,197.114685 133.353435,197.130445 C133.103204,197.163935 133.235216,198.932999 133.235216,198.932999 C133.235216,198.932999 133.487417,199.74464 133.479536,200.126821 C133.715975,200.595682 133.873601,201.466424 133.457862,201.537472 C133.38102,201.551134 132.8313,200.445962 132.8313,200.445962 C132.8313,200.445962 132.616534,199.66781 132.490434,199.305329 C132.267787,198.663108 132.234292,197.650526 132.120013,197.205305 C132.023467,196.832974 131.936773,196.986634 131.897367,196.970874 C131.865841,196.959054 131.91904,197.471255 131.98012,198.174547 C132.011645,198.529148 131.970268,198.938909 132.070755,199.342759 C132.16139,199.71706 132.214589,200.252901 132.238232,200.575982 C132.307194,201.492034 131.729889,201.397474 131.530886,200.560222 C131.454044,200.241081 131.375231,199.894361 131.294448,199.53976 C130.985107,198.168637 130.994959,196.844794 130.845214,196.834944 C130.654093,196.821154 130.780193,199.228499 130.780193,199.228499 C130.780193,199.228499 130.484645,200.560222 130.193037,199.323059 C129.852171,197.888896 129.887637,196.718714 129.893548,196.667494 C129.923103,196.316833 129.670901,195.06391 129.96448,193.856298" id="path218" fill="#F8A492"></path>
                            <path d="M171.731388,197.037854 C171.43781,195.830242 170.905823,193.921308 170.905823,193.921308 C170.94917,193.395317 171.102855,191.212552 171.288066,188.535316 L167.353331,190.109349 C167.353331,190.109349 167.400618,194.470939 167.22526,194.738859 C167.075515,194.96344 166.827254,194.681729 165.621417,196.407453 C165.272669,196.905864 165.207649,197.796306 165.207649,197.796306 C165.207649,197.796306 165.134747,198.891628 165.381037,198.994069 C165.627328,199.096509 165.909084,198.932999 165.999719,198.741908 C166.088383,198.552788 166.064739,198.113477 166.153404,197.924356 C166.244039,197.733266 166.811492,197.506715 167.051871,197.518535 C167.292251,197.530355 167.022316,200.759192 167.022316,200.759192 C167.022316,200.759192 166.888334,201.673274 166.821343,201.972715 C166.762234,202.228816 166.529735,202.977417 166.529735,202.977417 C166.529735,202.977417 166.257831,204.06486 166.594756,204.1476 C166.793759,204.19685 167.300132,203.314288 167.646909,202.376566 C168.02127,201.367924 168.234065,200.298211 168.340462,200.312001 C168.592664,200.345492 168.458682,202.116525 168.458682,202.116525 C168.458682,202.116525 168.208451,202.926197 168.214362,203.310348 C167.977923,203.779209 167.822267,204.647981 168.238006,204.720965 C168.314848,204.732691 168.864568,203.627519 168.864568,203.627519 C168.864568,203.627519 169.079334,202.849367 169.205434,202.486886 C169.42611,201.844665 169.459606,200.832083 169.575855,200.386862 C169.672401,200.014531 169.759095,200.168191 169.798501,200.152431 C169.830027,200.140611 169.776828,200.652812 169.713778,201.356104 C169.684223,201.710705 169.723629,202.120465 169.625113,202.524316 C169.532508,202.898617 169.481279,203.434458 169.455665,203.757539 C169.388674,204.673591 169.965979,204.579031 170.164982,203.741779 C170.241824,203.422638 170.320637,203.075917 170.40142,202.721317 C170.710761,201.350194 170.700909,200.028321 170.848684,200.016501 C171.041775,200.002711 170.915675,202.410056 170.915675,202.410056 C170.915675,202.410056 171.209253,203.741779 171.502831,202.504616 C171.843697,201.070453 171.808231,199.900271 171.80232,199.84905 C171.770795,199.49839 172.024967,198.245467 171.731388,197.037854" id="path220" fill="#F8A492"></path>
                            <path d="M147.175252,182.861704 C147.175252,182.861704 149.17907,184.973548 150.788824,182.404663 C150.788824,182.404663 152.030128,183.102044 152.901011,181.860942 C152.901011,181.860942 155.143238,182.534683 155.687048,179.183706 C155.687048,179.183706 156.841657,179.400406 156.993372,178.029283 C157.147057,176.65816 156.449563,175.744078 156.449563,175.744078 C156.449563,175.744078 157.097799,175.259457 156.804221,173.998655 C156.55399,172.925002 155.665374,172.763462 155.665374,172.763462 C155.665374,172.763462 155.426965,170.954998 154.642776,170.411277 C153.858588,169.867556 152.792643,170.129566 152.792643,170.129566 C152.792643,170.129566 152.508916,169.148504 151.594686,169.237154 C150.680457,169.323835 149.549491,170.194576 148.524923,169.802546 C147.502325,169.410515 144.84633,169.824216 144.84633,169.824216 C144.84633,169.824216 141.863261,171.151999 142.755817,174.199595 C142.755817,174.199595 141.18941,175.614058 142.560755,177.312202 C142.560755,177.312202 141.559831,179.967768 143.540006,181.533921 C145.522151,183.102044 147.175252,182.861704 147.175252,182.861704" id="path222" fill="#07345A"></path>
                            <path d="M160.967513,94.4124528 C160.967513,94.4124528 163.148661,91.707637 163.69247,91.3766763 C164.236279,91.0437456 163.450121,87.1135871 161.970408,86.8555165 C161.134991,86.7097362 160.671965,87.6297282 160.671965,87.6297282 L160.910374,88.7605106 L157.793323,91.9716176 L160.967513,94.4124528" id="path224" fill="#F7A491"></path>
                            <path d="M149.72682,93.7446214 C149.72682,93.7446214 151.545428,90.783705 152.04195,90.3837941 C152.538471,89.9858533 151.257761,86.1876851 149.756375,86.1226749 C148.909136,86.0832748 148.5663,87.0544869 148.5663,87.0544869 L148.948543,88.1458693 L146.266933,91.729307 L149.72682,93.7446214" id="path226" fill="#F7A491"></path>
                            <path d="M151.933582,90.5000244 C151.933582,90.5000244 150.889311,89.1683015 150.317917,88.6383704 C149.582987,87.9547789 148.641172,87.2869474 148.641172,87.2869474 C148.641172,87.2869474 147.573257,85.3504333 147.281649,84.6727518 C146.633413,83.1696386 145.902423,81.4931649 146.008821,80.6519731 C146.042316,80.3801125 146.649176,80.0944619 147.155549,80.2500923 C149.263794,80.8982237 154.652628,85.8271743 155.332389,87.1490471 C156.116578,88.6758004 151.933582,90.5000244 151.933582,90.5000244" id="path228" fill="#07345A"></path>
                            <path d="M136.55127,135.603272 C136.746332,136.150933 136.935483,136.659194 137.116752,137.133965 C139.35701,136.645404 141.888875,136.107593 144.493642,135.552052 L144.810864,126.007381 C144.808894,126.744163 142.852363,110.783188 142.852363,110.783188 C142.852363,110.783188 147.914123,99.579774 151.375981,93.0511799 C149.955378,91.2781761 149.289408,90.7068748 147.230421,89.4992622 C141.85735,95.9392061 134.825267,107.723772 134.533659,109.683926 C134.366181,110.810768 134.214466,129.031338 136.55127,135.603272" id="path230" fill="#B75742"></path>
                            <path d="M156.55793,132.843296 C155.874228,125.40653 154.351168,111.187039 154.477269,110.044437 C154.861482,108.618154 161.633483,95.4604951 162.853113,93.545651 C161.885684,92.0878478 160.386268,90.5118444 158.774544,90.0761205 C158.457322,89.9897933 147.277709,105.895608 146.668879,107.15838 C145.979266,108.584663 144.832538,116.37012 144.810864,126.007381 L144.493642,135.552052 C148.834264,134.62812 152.824168,133.719948 156.55793,132.843296" id="path232" fill="#F47458"></path>
                            <path d="M142.308554,166.747069 L147.415631,166.045748 C147.415631,166.045748 151.509963,165.945277 152.018306,165.945277 C152.524679,165.945277 155.732365,147.314947 156.660387,140.303702 C157.59038,133.292457 156.871212,132.051354 156.871212,132.051354 C156.871212,132.051354 150.39476,130.593551 145.602934,131.019072 C140.619987,131.460353 135.014418,134.149409 135.014418,134.149409 C135.014418,134.149409 139.272286,147.624238 140.117554,151.830197 C140.960853,156.038126 142.308554,166.747069 142.308554,166.747069" id="path234" fill="#96D9C9"></path>
                            <path d="M129.923103,189.315438 C129.923103,189.315438 129.594059,175.424938 130.118165,174.363105 C130.88068,172.816652 139.457496,161.857518 139.457496,161.857518 C139.457496,161.857518 135.359224,144.712571 133.637162,138.792709 C133.463773,138.197767 132.695347,134.346409 132.695347,133.970138 C132.695347,133.136826 136.320742,132.080904 136.750272,132.143944 C137.136456,132.199104 140.298824,148.5068 142.318405,156.487287 C143.002107,159.192103 144.17642,161.747198 145.780263,164.028463 L147.185103,166.022107 L136.409406,176.821671 C136.409406,176.821671 135.081409,188.842637 135.081409,189.837489 C135.081409,190.099499 130.445238,190.29453 129.923103,189.315438" id="path236" fill="#13375B"></path>
                            <path d="M151.833096,165.970887 L165.268729,179.660447 C165.268729,179.660447 167.142506,192.605345 167.274518,193.091936 C167.406529,193.570647 170.742286,193.830687 172.088017,193.960809 C172.519518,194.004048 171.86143,180.174618 171.219104,177.855923 C170.45856,175.115647 160.301544,162.63961 160.301544,162.63961 C160.301544,162.63961 158.480966,155.880526 158.920348,150.922025 C159.647397,142.689377 161.611809,131.363823 161.259121,131.007252 C159.076003,129.632189 150.694249,129.484439 150.164232,130.33942 C144.306461,139.771801 151.833096,165.970887 151.833096,165.970887" id="path238" fill="#13375B"></path>
                            <path d="M147.514147,168.527953 L147.151608,165.838897 C147.151608,165.838897 146.339835,161.963899 147.384106,161.217267 C148.428377,160.470635 151.827185,165.949217 151.827185,165.949217 L151.468586,172.763462 L147.514147,168.527953" id="path240" fill="#F7A491"></path>
                            <path d="M151.584835,170.555087 C150.721833,168.230482 148.666786,166.802229 147.206777,166.248658 L147.514147,168.527953 L151.468586,172.763462 L151.584835,170.555087" id="path242" fill="#F47458"></path>
                            <path d="M157.028838,177.394942 C157.028838,176.35675 156.439711,175.515558 155.710691,175.515558 C154.981672,175.515558 154.392545,176.35675 154.392545,177.394942 C154.392545,178.433134 154.981672,179.274326 155.710691,179.274326 C156.439711,179.274326 157.028838,178.433134 157.028838,177.394942" id="path244" fill="#07345A"></path>
                            <path d="M153.074399,181.433451 C153.074399,180.838509 152.355231,180.353888 151.470556,180.353888 C150.583911,180.353888 149.864743,180.838509 149.864743,181.433451 C149.864743,182.030362 150.583911,182.514983 151.470556,182.514983 C152.355231,182.514983 153.074399,182.030362 153.074399,181.433451" id="path246" fill="#07345A"></path>
                            <path d="M149.05494,179.922457 C146.932902,180.653329 144.672941,179.244776 144.349808,177.058071 C144.209916,176.108529 144.081845,174.914707 144.058201,173.608594 C144.001061,170.468407 145.628548,167.41096 147.055062,167.41096 C148.481576,167.41096 152.424192,169.444005 152.566056,173.904094 C152.65472,176.65619 151.279435,179.156126 149.05494,179.922457" id="path248" fill="#F7A491"></path>
                            <path d="M151.513903,173.551464 C151.513903,172.858022 151.974959,172.296571 152.540442,172.296571 C153.107895,172.296571 153.56698,172.858022 153.56698,173.551464 C153.56698,174.242935 153.107895,174.804386 152.540442,174.804386 C151.974959,174.804386 151.513903,174.242935 151.513903,173.551464" id="path250" fill="#F7A491"></path>
                            <path d="M142.874036,181.484671 C141.400235,180.318428 140.88401,178.545424 141.721397,177.524962 C142.556814,176.5045 144.430592,176.6227 145.902423,177.790913 C147.376225,178.957155 147.892449,180.730159 147.057032,181.750621 C146.219645,182.771084 144.347838,182.652883 142.874036,181.484671" id="path252" fill="#07345A"></path>
                            <path d="M146.726018,180.529219 C146.726018,180.020958 147.338789,179.611197 148.095393,179.611197 C148.850026,179.611197 149.462797,180.020958 149.462797,180.529219 C149.462797,181.03551 148.850026,181.447241 148.095393,181.447241 C147.338789,181.447241 146.726018,181.03551 146.726018,180.529219" id="path254" fill="#07345A"></path>
                            <path d="M142.655331,176.62467 C142.655331,175.972599 143.177466,175.444638 143.823732,175.444638 C144.468028,175.444638 144.992134,175.972599 144.992134,176.62467 C144.992134,177.276742 144.468028,177.806673 143.823732,177.806673 C143.177466,177.806673 142.655331,177.276742 142.655331,176.62467" id="path256" fill="#07345A"></path>
                            <path d="M163.57031,91.4771465 C163.57031,91.4771465 162.703368,90.0232834 162.206847,89.4244021 C161.564521,88.6521604 160.715312,87.8680987 160.715312,87.8680987 C160.715312,87.8680987 159.903539,85.8114143 159.700596,85.1041827 C159.249392,83.5281793 158.739078,81.6271252 158.951873,80.8056335 C159.018864,80.5416529 159.600109,80.0393018 160.078898,80.3505625 C161.927061,81.5542351 166.86469,87.1884472 167.369093,88.5871503 C167.952309,90.2005837 163.57031,91.4771465 163.57031,91.4771465" id="path258" fill="#07345A"></path>
                            <path d="M259.755572,148.86731 C259.755572,148.86731 253.862336,147.959138 249.509892,143.619219 C245.157449,139.2793 242.556622,132.307455 242.556622,132.307455 L251.470364,129.709019 C251.470364,129.709019 247.90802,138.020467 259.755572,148.86731" id="path260" fill="#FAE0B2"></path>
                            <path d="M261.387,144.592401 L260.748615,149.611972 L256.252338,151.932637 C255.740054,152.196618 255.751876,152.933399 256.274012,153.17768 L260.851072,155.336804 L261.666786,160.330765 C261.761361,160.900096 262.464767,161.114827 262.860802,160.695216 L266.32857,157.009338 L271.331221,157.77567 C271.900644,157.86432 272.322293,157.259529 272.046448,156.755207 L269.611129,152.318758 L271.886852,147.797598 C272.144964,147.283427 271.701641,146.694396 271.136159,146.802746 L266.163063,147.746378 L262.567224,144.18658 C262.157396,143.780759 261.459902,144.0211 261.387,144.592401" id="path262" fill="#F7CC7F"></path>
                            <path d="M104.69883,122.144203 C104.69883,122.144203 110.592066,121.236031 114.94451,116.896111 C119.29715,112.556192 121.896795,105.586317 121.896795,105.586317 L112.984038,102.987881 C112.984038,102.987881 116.546185,111.297359 104.69883,122.144203" id="path264" fill="#FAE0B2"></path>
                            <path d="M103.06622,117.869293 L103.704802,122.888864 L108.202655,125.209529 C108.714939,125.47351 108.701935,126.210291 108.180588,126.456542 L103.603133,128.615667 L102.786631,133.607657 C102.693632,134.176989 101.98865,134.391719 101.5936,133.972108 L98.1260288,130.28623 L93.1233785,131.054532 C92.5537581,131.141212 92.1311238,130.536421 92.4083482,130.0321 L94.8424854,125.59565 L92.5675503,121.07646 C92.3082558,120.560319 92.7521696,119.973258 93.3184404,120.079638 L98.2903537,121.02327 L101.886784,117.463473 C102.296612,117.057652 102.993515,117.297992 103.06622,117.869293" id="path266" fill="#F7CC7F"></path>
                            <path d="M299.62112,144.482081 L301.000346,146.810626 L299.863469,149.265251 C299.733428,149.544992 299.981689,149.852313 300.283148,149.783362 L302.921411,149.192361 L304.905526,151.032345 C305.132113,151.241166 305.500564,151.101295 305.530119,150.793975 L305.78232,148.100979 L308.144737,146.783046 C308.414672,146.633326 308.394968,146.239325 308.111242,146.117184 L305.628635,145.043532 L305.104529,142.389936 C305.045419,142.086556 304.665147,141.984116 304.460233,142.216576 L302.67315,144.24568 L299.985629,143.92457 C299.680229,143.88714 299.465464,144.2181 299.62112,144.482081" id="path268" fill="#466EB6"></path>
                            <path d="M166.612489,249.790628 L168.352284,252.727905 L166.917889,255.824751 C166.754352,256.177382 167.067634,256.565473 167.445936,256.480763 L170.777752,255.734131 L173.282033,258.054796 C173.565759,258.318777 174.030755,258.141476 174.068192,257.755356 L174.387384,254.357098 L177.368483,252.694415 C177.707378,252.503324 177.681764,252.006883 177.325136,251.853223 L174.192322,250.49983 L173.530293,247.150823 C173.455421,246.768642 172.976633,246.638622 172.71852,246.930182 L170.4625,249.493158 L167.073545,249.085367 C166.687361,249.040057 166.415457,249.455728 166.612489,249.790628" id="path270" fill="#F79C8D"></path>
                            <polyline id="path272" fill="#F48C7F" points="294.25987 242.495703 289.667047 239.432346 292.234378 234.974226 287.844498 231.755239 289.773445 227.19271 286.88101 224.247553 288.372545 222.78384 292.240289 226.723849 290.4138 231.048008 294.981009 234.395045 292.455054 238.780275 296.616377 241.556011 294.25987 242.495703"></polyline>
                            <polyline id="path274" fill="#F48C7F" points="301.313627 168.644183 298.064564 173.108213 293.714091 170.360057 290.319224 174.617236 285.83871 172.505391 282.776827 175.273247 281.375928 173.724824 285.468289 170.021216 289.716305 172.02274 293.247124 167.596141 297.526666 170.297017 300.470329 166.252598 301.313627 168.644183"></polyline>
                            <polyline id="path276" fill="#F48C7F" points="149.064792 261.086633 150.168173 266.494294 145.204929 267.851627 146.056108 273.227769 141.473137 275.109123 141.451463 279.238252 139.362921 279.226432 139.390505 273.70648 143.733097 271.923626 142.848422 266.330784 147.728913 264.995121 146.729959 260.093751 149.064792 261.086633"></polyline>
                            <polyline id="path278" fill="#F7CC7F" points="106.135983 253.892177 108.237727 249.969899 112.770652 250.222059 114.814862 245.657559 119.559597 247.416773 122.099344 242.355832 126.668326 243.435395 129.90734 238.965455 128.216803 237.740112 125.793503 241.08321 120.972516 239.942577 118.531089 244.806518 113.70695 243.017754 111.45093 248.057025 107.024402 247.808804 105.076343 251.445432 102.203612 250.67516 101.661971 252.692445 106.135983 253.892177"></polyline>
                            <polyline id="path280" fill="#50BFA5" points="86.5834821 222.90992 83.2376764 222.57108 82.0966623 227.892061 77.1436641 228.000411 75.6385343 231.84192 73.6926432 231.081498 75.7057223 225.939787 80.399623 225.839317 81.5867427 220.303605 86.6211152 220.813836 86.5834821 222.90992"></polyline>
                            <polyline id="path282" fill="#50BFA5" points="80.5651302 165.208496 79.3127928 162.088009 74.0683839 163.547782 71.6748354 159.211803 67.5716375 159.662934 67.3434741 157.584579 72.831415 156.981758 75.099651 161.093157 80.5554756 159.574284 82.4394985 164.268804 80.5651302 165.208496"></polyline>
                            <path d="M89.4542428,200.113031 C93.1667256,196.553233 93.2896737,190.657011 89.7289058,186.945523 C86.168138,183.234035 80.2719461,183.109924 76.5594633,186.671692 C72.8469806,190.23149 72.7240324,196.125742 76.2848003,199.8392 C79.8455682,203.550688 85.74176,203.672829 89.4542428,200.113031" id="path284" fill="#FFF3D9"></path>
                            <path d="M89.2511025,192.327574 L85.2877976,191.110112 L84.0445237,187.154343 C83.9440373,186.835202 83.5208119,186.770192 83.3283113,187.044023 L80.9448114,190.43637 L76.7986606,190.395 C76.4639027,190.39303 76.270614,190.775211 76.471784,191.043131 L78.9620753,194.356679 L77.642944,198.286837 C77.5363495,198.604008 77.8401734,198.907388 78.1570013,198.799038 L82.0795205,197.455495 L85.4103517,199.923911 C85.6794978,200.122881 86.0603613,199.927851 86.0550414,199.59295 L85.9890356,195.448061 L89.3665634,193.042686 C89.6396502,192.849625 89.57128,192.426074 89.2511025,192.327574" id="path286" fill="#FED333"></path>
                            <path d="M332.779687,184.613038 C336.491776,181.05324 336.613936,175.158987 333.053562,171.445529 C329.493188,167.734041 323.596011,167.611901 319.883922,171.171699 C316.171834,174.731496 316.047703,180.627719 319.610047,184.339207 C323.170421,188.050695 329.065628,188.172835 332.779687,184.613038" id="path288" fill="#FFF3D9"></path>
                            <path d="M332.574773,176.827581 L328.612454,175.610118 L327.36918,171.65435 C327.268693,171.335209 326.845074,171.270199 326.651982,171.544029 L324.269861,174.936377 L320.124302,174.896977 C319.789347,174.893037 319.594285,175.275217 319.797228,175.543138 L322.285746,178.856685 L320.9676,182.786844 C320.861202,183.105984 321.164632,183.407395 321.481854,183.299045 L325.404768,181.955502 L328.734614,184.423917 C329.004548,184.622888 329.38482,184.427857 329.378909,184.092956 L329.313889,179.948068 L332.691022,177.542692 C332.964897,177.349632 332.895936,176.926081 332.574773,176.827581" id="path290" fill="#FED333"></path>
                            <path d="M290.744814,196.297133 L292.372301,193.592317 C292.54963,193.298786 292.985071,193.336216 293.109202,193.653387 L294.265781,196.590663 L297.341456,197.303805 C297.67444,197.380635 297.774927,197.806156 297.510904,198.022857 L295.075584,200.030291 L295.347489,203.176388 C295.377044,203.517198 295.002682,203.743749 294.715015,203.558569 L292.053109,201.862395 L289.144912,203.093647 C288.82966,203.227608 288.498646,202.941957 288.58534,202.610996 L289.375439,199.55552 L287.3066,197.169845 C287.081983,196.911774 287.251431,196.509893 287.594267,196.488223 L290.744814,196.297133" id="path292" fill="#F47458"></path>
                            <path d="M285.028907,134.350349 C285.028907,133.308217 284.183638,132.463085 283.143308,132.463085 C282.101007,132.463085 281.255738,133.308217 281.255738,134.350349 C281.255738,135.392481 282.101007,136.235643 283.143308,136.235643 C284.183638,136.235643 285.028907,135.392481 285.028907,134.350349" id="path294" fill="#50BFA5"></path>
                            <path d="M64.1887898,191.539573 C64.1887898,190.49744 63.2735747,189.652308 62.1445796,189.652308 C61.0155845,189.652308 60.1003694,190.49744 60.1003694,191.539573 C60.1003694,192.581705 61.0155845,193.426837 62.1445796,193.426837 C63.2735747,193.426837 64.1887898,192.581705 64.1887898,191.539573" id="path296" fill="#50BFA5"></path>
                            <path d="M171.079212,281.787437 L173.557878,281.298876 C173.557878,281.298876 177.177361,282.98914 177.453207,283.804722 C177.731022,284.620304 177.602951,286.499688 178.132968,286.615918 C178.662985,286.734118 179.723019,286.688808 180.128905,285.441795 C180.424454,284.537563 179.399886,281.690907 179.646176,281.430867 C179.801832,281.269326 181.216524,280.948216 182.254884,280.729545 C182.936616,280.585735 183.482395,280.069594 183.667606,279.386002 L183.669576,279.384032 C183.795677,278.923051 183.586822,278.43252 183.167144,278.20794 L182.514967,277.859249 L182.822337,277.179597 C183.048924,276.673306 182.832189,276.072455 182.333697,275.832115 L181.825354,275.589804 L182.04997,275.180043 C182.335667,274.652082 182.10711,273.986221 181.55739,273.74982 L181.112097,273.55676 L181.145592,273.436589 C181.289426,272.932268 181.029343,272.396427 180.546614,272.203367 L180.101321,272.026066 L173.504679,273.330209 C172.885998,273.452349 172.300812,273.70057 171.782617,274.063051 L169.538419,274.912123 C169.298039,275.002743 169.160117,275.260813 169.215286,275.516914 L170.468411,281.377677 C170.529491,281.659387 170.801396,281.842598 171.079212,281.787437" id="path298" fill="#96D9C9"></path>
                        </g>
                    </g>
                </g>
            </g>
        </g>
    </g>
</svg>